<?xml version="1.0" encoding="UTF-8"?>
<svg id="_레이어_1" data-name="레이어_1" xmlns="http://www.w3.org/2000/svg" viewBox="0 0 800 800">
  <defs>
    <style>
      .cls-1 {
        fill: #fcefe6;
      }

      .cls-2 {
        fill: #a5a5a5;
      }

      .cls-3 {
        fill: #636363;
      }

      .cls-4 {
        fill: #f6eae1;
      }

      .cls-5 {
        fill: #262525;
      }

      .cls-6 {
        fill: #5a3f2c;
      }

      .cls-7 {
        fill: #202221;
      }

      .cls-8 {
        fill: silver;
      }

      .cls-9 {
        fill: #fefefe;
      }

      .cls-10 {
        fill: #383838;
      }

      .cls-11 {
        fill: #fceee5;
      }

      .cls-12 {
        fill: #593e2a;
      }

      .cls-13 {
        fill: #787878;
      }
    </style>
  </defs>
  <path class="cls-9" d="M799.91,400c0,131.8-.02,263.61.09,395.41,0,3.74-.84,4.59-4.59,4.59-263.61-.1-527.22-.1-790.83,0-3.74,0-4.59-.84-4.59-4.59C.1,531.8.1,268.2,0,4.59,0,.84.84,0,4.59,0c263.61.1,527.22.1,790.83,0,3.74,0,4.59.84,4.59,4.59-.11,131.8-.09,263.61-.09,395.41ZM62.99,765.03c1.19,3.25,3.58,5.93,3.38,9.89-.11,2.17,1.69,4.37,3.69,6.16,4.67,4.17,10.62,3.73,16.01,4.74,23.89,4.47,44.92-3.1,64.62-16.08,4-2.64,6.37-7.23,11.15-8.79,2.03,10.85,1.83,21.46-3.33,31.54-3.05,5.96-2.8,6.38,3.94,6.38,141.74,0,283.48,0,425.22,0,.83,0,1.67-.07,2.49.01,2.79.28,3.63-.55,2.32-3.32-2.28-4.84-2.75-9.96-1.09-15.07,3.03-9.36,5.46-18.49-1.78-27.3-1.9-2.32-.05-3.44,2.61-3.16,3.96.42,7.93.81,11.91,1.03,8.01.44,15.68,1.71,23.08,5.34,13.8,6.77,28.37,11.28,43.82,12.49,1.3,2.09,3.62,2.28,5.64,2.67,3.31.65,6.18,2.12,9.15,3.63,9.57,4.86,19.17,9.73,29.49,12.82,3.4,1.02,6.81,2.07,10.64,1.5,8.62-1.28,14.51-6.31,18.77-13.31,3.51-5.78,6.61-11.97,5.8-19.09-.64-5.62-.96-11.18.17-16.78.46-2.26,1.11-4.94-.37-6.75-1.74-2.14-.69-3.64.06-5.42,3.98-7.35,6.09-15.17,5.07-23.53-.72-5.92-2.64-11.69-2.55-17.73.23-14.97-4.67-28.07-14.59-39.18-3.59-4.02-4.96-8.27-3.08-13.23,1.61-4.23.55-7.83-1.8-11.27-2.16-3.15-4.68-5.99-7.49-8.63-4.69-4.41-9.79-8.45-12.36-14.76-2.5-6.14-5.26-12.22-8.43-18.05-5.18-9.52-7.67-19.73-9.14-30.34-2.51-18.11-2.1-36.43-4.29-54.57-.96-7.91-3.1-14.81-8.67-20.64-2.73-2.86-5.82-5.57-7.49-9.27-2.71-6.02-7.2-10.41-12.73-13.63-16.62-9.68-30.95-22.97-48.68-30.9-1.99-1.73-1.96-4.05-1.98-6.41-.04-4.98.75-10.2-.47-14.88-2.63-10.05-3.98-20.09-3.52-30.43.08-1.81.1-3.61-.56-5.4-5.07-13.62-7.55-28.09-13.46-41.43-2.21-4.99-3.8-10.71-8.45-13.85-13.57-9.16-27.7-17.12-45.06-15.35-1.31-5.37-5.02-8.63-9.73-10.98.19-2.39,2.19-3.21,3.84-4.24,4.7-2.93,8.02-7.04,9.96-12.12,1.85-4.85,4.25-9.37,6.93-13.78,5.72-9.4,7.44-19.36,4.73-30.16-1.98-7.89-3.9-15.84-5.06-23.88-2.52-17.47-5.73-34.58-12.82-51.04-12.69-29.46-34.9-46.68-65.54-53.61-11.34-2.56-22.67-5.11-34.01-7.67-17.53-3.97-35.28-6.66-53.3-2.03-16.6,4.27-31.87,11.42-46.4,20.31-11.72,7.17-21.33,16.19-26.96,29.16-3.51,8.1-8.53,15.19-15.41,21.16-10.09,8.75-18.74,18.88-24.56,31.13-4.19,8.8-7.03,17.79-6.24,27.82,1.52,19.25,9.46,35.46,22.4,49.44,2.61,2.82,3.84,5.99,4.31,9.79,1.85,15.08,1.45,30.19,1.03,45.31.03,3.32-1.14,6.46-1.22,9.83-.29,12.56,3.14,24.49,5.57,36.61,1.49,7.45,5.3,14.3,5.4,22.07-2.61,2.18-3.8,5.39-5.76,8.05-2.32,3.14-5.07,5.34-9.25,4.5-9.56-1.93-18.89-.31-28.13,1.94-9.99,2.43-19.98,2.91-30.16,1.48-4.58-.64-9.3-.84-13.91-.59-20.72,1.14-37.82,10.02-52.64,24.31-10.86,10.47-21.37,21.72-35.44,28-17.23,7.69-25.27,20.77-23.74,39.19,1.3,15.68-3.85,27.38-17.25,35.79-7.33,4.6-12.02,11.83-16.29,19.24-3.85,6.68-4.32,13.44-1.12,20.52,1.92,4.24,3.39,8.67,5.38,12.87,7.23,15.29,5.69,28.72-6.1,41.68-11.26,12.38-16.42,27.72-14.92,44.65.85,9.62-1.33,18.35-5.02,27.05-3.35,7.88-4.84,16.1-3.59,24.82,2.31,16.01,9.81,29.86,17.39,43.72Z"/>
  <path class="cls-12" d="M671.03,768.92c-15.45-1.21-30.02-5.72-43.82-12.49-7.4-3.63-15.07-4.9-23.08-5.34-3.98-.22-7.95-.6-11.91-1.03-2.66-.29-4.51.84-2.61,3.16,7.24,8.81,4.81,17.94,1.78,27.3-1.66,5.11-1.2,10.23,1.09,15.07,1.3,2.76.47,3.6-2.32,3.32-.82-.08-1.66-.01-2.49-.01-141.74,0-283.48,0-425.22,0-6.74,0-6.99-.43-3.94-6.38,5.16-10.08,5.36-20.7,3.33-31.54,6.86-11.8,15.91-22.03,23.63-33.2,11.65-16.85,24.9-32.36,38.71-47.37,18.21-19.79,35.01-40.77,52.69-61,3.44-1.91,6.84-3.87,9.32-7.07,5.14-6.63,10.81-12.82,15.35-19.96,2.11-3.32,3.39-6.24,2.25-10.02,7.22-11.18,14.4-22.34,25.31-30.52,9.28-6.95,19.62-11.83,30.15-16.38,7.95-3.44,15.77-7.07,22.99-11.91,8.07-5.41,13.61-12.59,16.09-22.05,1.6-6.11,3.35-12.18,4.79-18.32,1.72-7.35,6.42-12.38,12.59-16,15.02-8.8,27.36-20.46,37.86-34.23,3.21-4.21,6.25-8.58,10.43-12.01,2.93-2.41,4.09-5.62,2.14-9.34,12.41-.02,24.82-.06,37.22-.06,1.7,0,3.9-.65,4.01,2.27-1.7.89-3.57.62-5.37.8-7.6.79-15.28,1.2-22.32,4.65-2.31,1.13-4.4,2.63-4.47,5.5-.07,3.15,2.18,4.78,4.7,5.82,2.43,1,5.04,1.57,7.57,2.33,5.22,2.64,10.47,2.22,15.75.19,15.38-1.68,30.71-2.6,46.08.51,4.31.87,5.71,2.98,6.07,6.87.51,5.46.81,11,2.04,16.31,3.01,12.96,5.74,26.48,17.47,34.75,6.52,4.6,10.12,10.11,11.28,17.67.28,1.8.87,3.55,1.16,5.35,9.57,59.03,25.25,116.89,33.1,176.26,4.35,32.9,19.69,59.29,49.14,76.32.69.4,1.5.77,1.46,1.8Z"/>
  <path class="cls-7" d="M293.79,319.31c.42-15.12.82-30.23-1.03-45.31-.47-3.8-1.7-6.96-4.31-9.79-12.94-13.98-20.88-30.18-22.4-49.44-.79-10.03,2.05-19.02,6.24-27.82,5.82-12.24,14.47-22.37,24.56-31.13,6.88-5.97,11.89-13.06,15.41-21.16,5.63-12.97,15.24-21.99,26.96-29.16,14.53-8.9,29.8-16.04,46.4-20.31,18.02-4.63,35.77-1.94,53.3,2.03,11.33,2.56,22.67,5.11,34.01,7.67,30.64,6.93,52.85,24.16,65.54,53.61,7.09,16.46,10.3,33.56,12.82,51.04,1.16,8.04,3.08,15.99,5.06,23.88,2.71,10.8.99,20.76-4.73,30.16-2.68,4.41-5.08,8.93-6.93,13.78-1.94,5.08-5.26,9.19-9.96,12.12-1.64,1.02-3.65,1.84-3.84,4.24-3.41-.29-6.07,3.14-9.37,2.32-11.01-2.73-22.27-1.19-33.39-2.03-3.37-.26-5.18-.7-6.39-3.58-.58-1.37-.97-2.83-1.65-4.14-5.23-10.17-8.23-13.73-20.03-13.62-4.46.04-9,.22-13.37-.49-8.24-1.34-16.3,1.08-24.47.56-2.41-5.27-4.72-10.55-10.11-13.68-8.1-4.69-18.84-1.22-19.12,6.81-.45,13.1-6.51,22.91-15.86,31.31-.95.85-2.93,1.3-2.27,3.35-1.9-.13-2.85,1.39-4.14,2.36-7.51,5.63-15.05,10.99-24.98,5.06-1.13-.68-2.89-.3-4.36-.41-.9-3.29-3.73-3.04-6.21-3.44,1.79,1.68,3.24,4.01,6.27,3.37.82,2.96,2.03,6-1.55,8.13.05-1.44-.38-2.35-1.9-3.02-2.9-1.27-5.83-2.33-8.95-2.87-5.19-.89-6.36-.12-6.68,5.03-.39,6.31.07,12.57,1.69,18.72,1.76,6.66,5.89,10.92,12.6,12.62,1.15,1.92,1.77,3.82-.25,5.6-4.92-.54-9.37-2.02-12.79-5.91-4.48-5.09-7.02-11.12-6.96-17.72.11-12.01-9.19-15.95-17.23-22.36-1,7.08-1.8,13.15-2.75,19.19-.28,1.8.12,4.28-2.88,4.41ZM305.6,286.8c4.71,1.9,7.28,7.97,14.74,7.33q-10.41-8.69-14.74-7.33Z"/>
  <path class="cls-11" d="M487.48,432.89c-2.53-.76-5.14-1.33-7.57-2.33-2.52-1.04-4.77-2.67-4.7-5.82.07-2.87,2.16-4.37,4.47-5.5,7.04-3.45,14.72-3.86,22.32-4.65,1.8-.19,3.67.09,5.37-.8,7.71-.08,15.32-1.06,22.92-2.22,9.67.42,19.21-.57,28.59-2.9,1.47-.36,4.13.08,3.32-3.01-1.71-4.43-6.01-6.38-9.42-8.8-4.67-3.32-8.57-8.06-14.59-9.31-1.87-3.65-4.54-4.2-8.06-2.29-3.06,1.66-6.21,3.15-9.37,4.62-5.71,2.67-11.71,3.65-17.96,2.65-3.2-.51-5.56-2.27-6.56-5.39-1.01-3.14.61-5.55,2.92-7.38,2.07-1.63,4.35-3.03,6.67-4.3,5.39-2.95,10.9-5.67,16.27-8.65,6.03-3.35,12.36-5.62,19.26-6.21.74.63,1.38,1.47,2.23,1.87,8.53,4,17.78,5.89,26.66,8.87.67.23,1.96.1,2.27-.35.92-1.31-.38-2.17-1.21-2.8-8.92-6.82-18.54-12.01-30.08-12.61-4.59-.82-8.41,1.52-12.39,3.09-7.46,2.95-14.99,5.66-23.2,4.9-7.73-.71-10.64-6.31-6.88-13.1.8-1.44,1.76-2.87,2.94-4,5.09-4.84,9.51-10.21,13.44-16.02,1.95-2.88,4.71-4.91,8.08-5.43,6.68-1.03,13.14-3.31,19.97-3.43,6.39,3.75,13.45,1.73,20.24,2.55-5.64-5.95-12.87-6.52-20.29-6.47-6.19-.95-12.49-1.46-18.3-4.06-4.97-2.23-7.74-6.43-6.85-10.32,1.14-4.95,5.15-5.93,9.42-6.54,4.41-.62,8.8-1.36,13.2-2.05,17.36-1.77,31.49,6.19,45.06,15.35,4.65,3.14,6.24,8.86,8.45,13.85,5.92,13.34,8.4,27.81,13.46,41.43.67,1.8.64,3.6.56,5.4-.46,10.34.89,20.39,3.52,30.43,1.23,4.68.44,9.9.47,14.88.02,2.37,0,4.68,1.98,6.41-.12,6.71,3.03,12.84,3.18,19.57.28,12.71,4.04,24.45,10.47,35.47,5.87,10.04,11.23,20.39,16.89,30.56,25.54,45.88,49.17,92.86,79.58,135.95,9.46,13.41,18.89,27.02,19.63,44.96.54,13.15,4.2,26.16,6.48,39.24-.74,1.78-1.8,3.28-.06,5.42,1.48,1.82.82,4.49.37,6.75-1.13,5.6-.81,11.16-.17,16.78.81,7.13-2.29,13.31-5.8,19.09-4.26,7.01-10.14,12.04-18.77,13.31-3.83.57-7.24-.48-10.64-1.5-10.32-3.1-19.92-7.97-29.49-12.82-2.97-1.51-5.83-2.98-9.15-3.63-2.02-.4-4.33-.58-5.64-2.67.05-1.03-.77-1.4-1.46-1.8-29.44-17.03-44.79-43.42-49.14-76.32-7.85-59.37-23.53-117.23-33.1-176.26-.29-1.8-.89-3.55-1.16-5.35-1.16-7.57-4.76-13.08-11.28-17.67-11.73-8.27-14.46-21.79-17.47-34.75-1.23-5.31-1.53-10.85-2.04-16.31-.37-3.89-1.76-6-6.07-6.87-15.37-3.1-30.7-2.19-46.08-.51-5.25-.06-10.5-.13-15.75-.19Z"/>
  <path class="cls-12" d="M62.99,765.03c-7.58-13.86-15.08-27.71-17.39-43.72-1.26-8.72.24-16.93,3.59-24.82,3.69-8.7,5.88-17.43,5.02-27.05-1.5-16.93,3.66-32.26,14.92-44.65,11.79-12.96,13.33-26.4,6.1-41.68-1.99-4.2-3.46-8.64-5.38-12.87-3.2-7.07-2.73-13.84,1.12-20.52,4.27-7.41,8.95-14.64,16.29-19.24,13.4-8.41,18.56-20.11,17.25-35.79-1.53-18.41,6.51-31.5,23.74-39.19,14.07-6.28,24.58-17.53,35.44-28,14.82-14.29,31.92-23.16,52.64-24.31,4.62-.25,9.34-.06,13.91.59,10.18,1.43,20.17.95,30.16-1.48,9.23-2.25,18.57-3.87,28.13-1.94,4.19.84,6.93-1.36,9.25-4.5,1.96-2.65,3.14-5.86,5.76-8.05,2.45,5.81,4.46,11.86,7.47,17.36,2.33,4.25,1.47,6.96-1.33,10.48-10.24,12.88-17.59,27.22-21.72,43.3-2.17,8.45-6.75,16.19-7.9,25.04-.17,1.29-1.45,2.6-2.5,3.6-15.82,15.05-26.43,34.03-39.01,51.53-7.73,8.32-15.66,16.46-21.69,26.18-6.49,7.12-11.58,15.37-18.38,22.26-19.19,19.47-40,36.78-62.79,52.04-43.12,28.87-67.05,69.48-70.95,121.54-.1,1.38.91,3.56-1.76,3.9Z"/>
  <path class="cls-11" d="M238.56,539.12c12.57-17.5,23.19-36.48,39.01-51.53,1.05-1,2.33-2.3,2.5-3.6,1.15-8.85,5.73-16.6,7.9-25.04,4.13-16.08,11.49-30.41,21.72-43.3,2.8-3.52,3.65-6.23,1.33-10.48-3.01-5.5-5.03-11.55-7.47-17.36-.1-7.77-3.91-14.62-5.4-22.07-2.43-12.13-5.86-24.05-5.57-36.61.08-3.36,1.24-6.5,1.22-9.83,3-.12,2.59-2.6,2.88-4.41.95-6.04,1.75-12.11,2.75-19.19,8.03,6.41,17.34,10.35,17.23,22.36-.06,6.59,2.48,12.63,6.96,17.72,3.42,3.89,7.87,5.37,12.79,5.91.06,4.95.11,9.9.17,14.86-.33,3.33-.45,6.67.02,10-.19,2.08-.43,4.16.31,6.59,4.62-6.2,6.09-12.9,5.76-20.15-.15-3.36-.21-7,3.7-8.35,4.24-1.47,7.28,1.02,9.81,4.09,3.07,3.72,3.68,8.39,4.78,12.87,0,5.63-.02,11.26-.03,16.89-1.14,8.24-2.71,16.38-5.93,24.09-.72,1.72-.37,2.55.98,3.74,6.29,5.54,14.56,6.35,21.37,1.63,13.77-9.55,28.58-12.93,44.92-8.01,3.89,1.17,8.21,2.44,9.72,6.31,1.77,4.56,4.44,4.37,8.02,3.34,1.11-.32,2.29-.62,3.43-.6,7.65.09,15.62-2.5,22.71,2.58,1.95,3.72.79,6.93-2.14,9.34-4.18,3.44-7.22,7.8-10.43,12.01-10.5,13.77-22.84,25.43-37.86,34.23-6.17,3.61-10.87,8.65-12.59,16-1.44,6.15-3.19,12.22-4.79,18.32-2.48,9.45-8.02,16.64-16.09,22.05-7.22,4.84-15.05,8.48-22.99,11.91-10.54,4.55-20.88,9.43-30.15,16.38-10.91,8.18-18.09,19.34-25.31,30.52-1.62-1.63-2.79-3.36-3.36-5.75-.77-3.25-2.57-6.04-6.46-6.43-1.76-1.31-3.52-2.62-5.27-3.92-.15-1.94-1.46-2.14-3-1.98h0c-.29-.75-.36-1.75-.89-2.2-6.81-5.7-14.54-10.85-23.21-11.38-9.87-.6-15.22-8.06-23.02-11.54Z"/>
  <path class="cls-1" d="M62.99,765.03c2.68-.33,1.66-2.51,1.76-3.9,3.9-52.05,27.83-92.67,70.95-121.54,22.79-15.26,43.6-32.57,62.79-52.04,6.8-6.89,11.89-15.14,18.38-22.26.04,4.05,2.43,6.66,5.55,8.69,3.36,2.19,5.59,4.62,5.59,9.17,0,3.93,2.68,6.93,6.05,9.22,7.55,5.14,14.98,10.43,22.45,15.68,5.87,4.12,10.79,10.14,19.1,9.37.79-.07,1.11,1.11,1.27,1.94-17.68,20.23-34.48,41.22-52.69,61-13.81,15.01-27.07,30.52-38.71,47.37-7.72,11.17-16.77,21.41-23.63,33.2-4.78,1.56-7.15,6.15-11.15,8.79-19.69,12.98-40.73,20.55-64.62,16.08-5.38-1.01-11.34-.57-16.01-4.74-2-1.79-3.8-3.99-3.69-6.16.21-3.97-2.19-6.64-3.38-9.89Z"/>
  <path class="cls-10" d="M360.94,361.6c-1.1-4.47-1.72-9.15-4.78-12.87-2.53-3.07-5.57-5.55-9.81-4.09-3.9,1.35-3.85,4.98-3.7,8.35.33,7.25-1.14,13.95-5.76,20.15-.74-2.43-.5-4.51-.31-6.59,1.6-3.34,1.61-6.67-.02-10-.06-4.95-.11-9.9-.17-14.86,2.02-1.78,1.4-3.68.25-5.6,1.08-10.16,2.16-20.32,3.24-30.49,3.58-2.13,2.37-5.16,1.55-8.13l-.06.07c1.47.11,3.23-.27,4.36.41,9.93,5.93,17.47.57,24.98-5.06,1.29-.96,2.24-2.49,4.14-2.36,3.9-.27,7.8-.53,11.69-.8,5.36,1.22,10.71,2.37,15.89-.65.26-1.29.61-2.58.76-3.88,1.38-11.69,7.13-19.67,19.02-22.46,8.16.52,16.23-1.9,24.47-.56,4.37.71,8.91.53,13.37.49,11.81-.11,14.8,3.44,20.03,13.62.68,1.32,1.07,2.77,1.65,4.14,1.21,2.88,3.02,3.32,6.39,3.58,11.12.85,22.38-.69,33.39,2.03,3.3.82,5.97-2.61,9.37-2.32,4.72,2.35,8.42,5.61,9.73,10.98-4.4.69-8.79,1.43-13.2,2.05-4.27.6-8.27,1.59-9.42,6.54-.9,3.89,1.88,8.09,6.85,10.32,5.8,2.6,12.11,3.12,18.3,4.06.02,1.31.03,2.62.05,3.92-6.83.12-13.29,2.4-19.97,3.43-3.37.52-6.13,2.55-8.08,5.43-3.92,5.81-8.35,11.18-13.44,16.02-1.18,1.13-2.15,2.56-2.94,4-3.76,6.79-.85,12.39,6.88,13.1,8.21.76,15.73-1.95,23.2-4.9,3.98-1.57,7.8-3.91,12.39-3.09.04,1.67.08,3.34.12,5.01-6.9.58-13.24,2.85-19.26,6.21-5.37,2.99-10.88,5.7-16.27,8.65-2.32,1.27-4.6,2.67-6.67,4.3-2.31,1.82-3.93,4.24-2.92,7.38,1,3.12,3.36,4.88,6.56,5.39,6.25,1,12.25.02,17.96-2.65,3.16-1.47,6.31-2.97,9.37-4.62,3.52-1.91,6.2-1.36,8.06,2.29-1.59,3.51-2.2,7.18-1.89,11.02-.23,5.16-1.3,9.93-6.02,13.01-7.6,1.16-15.22,2.14-22.92,2.22-.11-2.92-2.32-2.26-4.01-2.27-12.41,0-24.82.03-37.22.06-7.08-5.08-15.06-2.49-22.71-2.58-1.14-.01-2.32.28-3.43.6-3.58,1.02-6.25,1.22-8.02-3.34-1.5-3.88-5.83-5.14-9.72-6.31-16.33-4.92-31.14-1.54-44.92,8.01-6.81,4.72-15.08,3.91-21.37-1.63-1.35-1.19-1.7-2.02-.98-3.74,3.22-7.71,4.79-15.85,5.93-24.09,2.31-.63,1.82-2.6,1.59-4.03-.69-4.27,1.93-8.95-1.56-12.86ZM445.42,392.58c3.82.39,8.4-1.47,13.15-1.96,8.18-.84,13.94-5.03,19.02-11.26,8.25-10.1,12.41-21.86,12.42-34.39,0-9.38.91-20.42-10.47-25.76-.56-.26-1.08-.86-1.36-1.43-2.4-4.73-6.95-6.39-11.43-8.21-8.94-3.63-17.98-4.23-27.67-3.18-18.93,2.06-31.17,12.05-37.89,29.22-1.94,4.96-2.96,10.37-2.23,16,1.6,12.33,8.75,21.05,17.28,29.34,7.97,7.74,17.15,11.61,29.2,11.62ZM365.65,322.37c-.12,4.02-.11,7.16.79,10.23.38,1.3.57,2.66,2.18,2.97,1.35.26,2.25-.6,2.88-1.57,4.07-6.28,9.39-11.55,13.93-17.44,6.11-7.92,5.71-9.01-4.04-9.55-8.39-.47-12.16,1.34-15.18,8.37-1.09,2.54-.38,5.25-.56,7ZM494.25,307.23c.24-3-.22-5.76-.8-8.54-1.11-5.33-7.1-8.27-11.87-5.79-1.06.55-1.46,1.4-1.26,2.43,1.59,8.18,3.89,16.1,8.68,23.07.72,1.04,1.87,1.38,3.1.99,1.18-.37,1.19-1.46,1.29-2.45.32-3.29,1.34-6.52.86-9.72ZM476.51,286.54c.92-.09,4.16.34,2.52-3.13-2.39-5.07-5.22-9.97-8.83-14.34-.49-.6-1.15-1.34-2.1-.86-.9.45-.77,1.41-.75,2.19.17,5.05,1.75,9.76,3.77,14.31.77,1.74,2.5,2.02,5.38,1.83Z"/>
  <path class="cls-6" d="M750.37,728.19c-2.27-13.07-5.93-26.09-6.48-39.24-.74-17.94-10.17-31.56-19.63-44.96-30.4-43.09-54.03-90.06-79.58-135.95-5.66-10.17-11.02-20.51-16.89-30.56-6.44-11.01-10.19-22.76-10.47-35.47-.15-6.73-3.3-12.86-3.18-19.57,17.73,7.93,32.06,21.21,48.68,30.9,5.53,3.22,10.02,7.61,12.73,13.63,1.66,3.7,4.75,6.41,7.49,9.27,5.57,5.83,7.72,12.73,8.67,20.64,2.19,18.14,1.78,36.46,4.29,54.57,1.47,10.62,3.97,20.82,9.14,30.34,3.17,5.82,5.93,11.9,8.43,18.05,2.57,6.32,7.67,10.36,12.36,14.76,2.81,2.64,5.32,5.48,7.49,8.63,2.36,3.44,3.41,7.04,1.8,11.27-1.89,4.97-.51,9.21,3.08,13.23,9.92,11.11,14.82,24.21,14.59,39.18-.09,6.03,1.83,11.8,2.55,17.73,1.02,8.36-1.09,16.18-5.07,23.53Z"/>
  <path class="cls-8" d="M276.87,619.39c-.16-.84-.48-2.02-1.27-1.94-8.31.76-13.23-5.25-19.1-9.37-7.47-5.25-14.91-10.54-22.45-15.68-3.37-2.29-6.05-5.29-6.05-9.22,0-4.56-2.23-6.98-5.59-9.17-3.11-2.03-5.51-4.64-5.55-8.69,6.03-9.72,13.97-17.87,21.69-26.18,7.8,3.48,13.16,10.95,23.02,11.54,8.67.53,16.4,5.68,23.21,11.38.53.45.6,1.45.89,2.19-5.94-2.53-11.15-6.47-17.27-8.74-6.52-2.41-11.95-1.34-16.75,3.75-4.48,4.75-8.49,9.81-11.4,15.67-4,8.04-2.13,16.42,5.22,21.63,8,5.67,16.27,10.95,25.21,15.07,5.32,2.45,9.13,1.88,13.14-2.28,5.92-6.12,10.85-13.01,15.12-20.37,1.02-1.75,2.16-3.68,1.28-5.63-1.99-4.44-2.24-9.74-6.28-13.19,3.89.39,5.69,3.19,6.46,6.43.57,2.4,1.75,4.13,3.36,5.75,1.15,3.78-.14,6.7-2.25,10.02-4.54,7.14-10.2,13.33-15.35,19.96-2.48,3.2-5.88,5.16-9.32,7.07Z"/>
  <path class="cls-7" d="M487.48,432.89c5.25.06,10.5.13,15.75.19-5.27,2.03-10.53,2.45-15.75-.19Z"/>
  <path class="cls-4" d="M422.22,262.75c-11.88,2.79-17.63,10.76-19.02,22.46-.15,1.31-.51,2.59-.77,3.88-5.3.22-10.6.44-15.89.65-3.9.27-7.79.53-11.69.8-.66-2.05,1.32-2.5,2.27-3.35,9.35-8.4,15.41-18.2,15.86-31.31.28-8.04,11.02-11.5,19.12-6.81,5.4,3.13,7.71,8.41,10.11,13.68Z"/>
  <path class="cls-4" d="M339.88,305.61c-1.08,10.16-2.16,20.32-3.24,30.49-6.71-1.7-10.84-5.96-12.6-12.62-1.62-6.15-2.08-12.41-1.69-18.72.32-5.15,1.48-5.92,6.68-5.03,3.12.53,6.05,1.6,8.95,2.87,1.52.67,1.95,1.58,1.9,3.02Z"/>
  <path class="cls-4" d="M305.6,286.8q4.32-1.36,14.74,7.33c-7.46.63-10.02-5.43-14.74-7.33Z"/>
  <path class="cls-8" d="M341.43,297.48c-3.02.64-4.48-1.69-6.27-3.37,2.47.4,5.31.14,6.21,3.44,0,0,.06-.07.06-.07Z"/>
  <path class="cls-6" d="M530.29,411.55c4.72-3.08,5.79-7.85,6.02-13.01,8.61,2.43,16.83,6.33,25.89,7.1.8,3.08-1.86,2.64-3.32,3.01-9.38,2.33-18.92,3.32-28.59,2.9Z"/>
  <path class="cls-9" d="M541.37,360.59c-.04-1.67-.08-3.34-.12-5.01,11.54.59,21.16,5.78,30.08,12.61.83.63,2.13,1.49,1.21,2.8-.31.45-1.6.57-2.27.35-8.88-2.98-18.13-4.87-26.66-8.87-.85-.4-1.49-1.24-2.23-1.87Z"/>
  <path class="cls-9" d="M562.21,405.65c-9.07-.77-17.28-4.67-25.89-7.1-.32-3.83.29-7.51,1.89-11.02,6.02,1.26,9.92,6,14.59,9.31,3.41,2.43,7.71,4.37,9.42,8.8Z"/>
  <path class="cls-9" d="M543.2,321.59c-.02-1.31-.03-2.62-.05-3.92,7.42-.05,14.65.52,20.29,6.47-6.79-.82-13.86,1.21-20.24-2.55Z"/>
  <path class="cls-7" d="M293.96,570.14c4.05,3.46,4.29,8.75,6.28,13.19.88,1.95-.27,3.88-1.28,5.63-4.27,7.36-9.21,14.25-15.12,20.37-4.01,4.15-7.82,4.73-13.14,2.28-8.94-4.12-17.21-9.4-25.21-15.07-7.35-5.21-9.22-13.59-5.22-21.63,2.91-5.85,6.92-10.92,11.4-15.67,4.8-5.09,10.23-6.16,16.75-3.75,6.11,2.26,11.32,6.2,17.27,8.74,0,0,0,0,0,0,.67,1.15,1.66,1.83,3,1.98,1.76,1.31,3.52,2.62,5.27,3.92Z"/>
  <path class="cls-7" d="M360.94,361.6c3.49,3.91.87,8.59,1.56,12.86.23,1.43.72,3.4-1.59,4.03,0-5.63.02-11.26.03-16.89Z"/>
  <path class="cls-7" d="M336.56,356.55c1.64,3.33,1.62,6.66.02,10-.47-3.33-.35-6.67-.02-10Z"/>
  <path class="cls-8" d="M288.69,566.22c-1.34-.15-2.32-.83-3-1.98,1.54-.16,2.85.04,3,1.98Z"/>
  <path class="cls-5" d="M445.42,392.58c-12.05-.01-21.23-3.87-29.2-11.62-8.53-8.28-15.68-17.01-17.28-29.34-.73-5.64.29-11.04,2.23-16,6.72-17.17,18.96-27.17,37.89-29.22,9.69-1.05,18.73-.45,27.67,3.18,4.49,1.82,9.03,3.48,11.43,8.21.29.57.8,1.17,1.36,1.43,11.38,5.34,10.48,16.38,10.47,25.76,0,12.53-4.17,24.29-12.42,34.39-5.09,6.23-10.85,10.42-19.02,11.26-4.74.49-9.33,2.35-13.15,1.96ZM444.65,383.53c20.7,1.34,35.6-14.73,35.7-35.24.11-22.21-15.76-34.73-37.55-35.61-14.32-.57-35.09,17.04-34.63,34.65.53,20.18,16.49,37.7,36.47,36.2Z"/>
  <path class="cls-13" d="M365.65,322.37c.18-1.75-.54-4.45.56-7,3.02-7.03,6.78-8.84,15.18-8.37,9.75.55,10.15,1.63,4.04,9.55-4.54,5.88-9.85,11.16-13.93,17.44-.63.97-1.53,1.83-2.88,1.57-1.61-.31-1.79-1.67-2.18-2.97-.9-3.08-.91-6.21-.79-10.23Z"/>
  <path class="cls-13" d="M494.25,307.23c.47,3.2-.55,6.43-.86,9.72-.09.98-.11,2.08-1.29,2.45-1.23.39-2.38.05-3.1-.99-4.79-6.97-7.09-14.89-8.68-23.07-.2-1.03.2-1.88,1.26-2.43,4.77-2.48,10.76.46,11.87,5.79.58,2.78,1.04,5.54.8,8.54Z"/>
  <path class="cls-13" d="M476.51,286.54c-2.88.19-4.61-.09-5.38-1.83-2.02-4.55-3.6-9.26-3.77-14.31-.03-.78-.15-1.74.75-2.19.95-.48,1.61.26,2.1.86,3.6,4.37,6.44,9.28,8.83,14.34,1.64,3.47-1.6,3.04-2.52,3.13Z"/>
  <path class="cls-7" d="M386.54,289.74c5.3-.22,10.6-.44,15.89-.65-5.18,3.02-10.54,1.87-15.89.65Z"/>
  <path class="cls-10" d="M444.65,383.53c-19.98,1.5-35.94-16.02-36.47-36.2-.46-17.62,20.31-35.22,34.63-34.65,21.79.87,37.66,13.4,37.55,35.61-.11,20.52-15.01,36.59-35.7,35.24ZM445.36,379.59c19.15,2.2,31.05-18.35,31.02-32.93-.03-16.37-13.89-31.02-29.45-31.04-18.69-.03-34.34,14.35-34.49,31.42-.13,14.53,15.17,34.23,32.92,32.55Z"/>
  <path class="cls-3" d="M445.36,379.59c-17.75,1.68-33.06-18.02-32.92-32.55.16-17.07,15.81-31.45,34.49-31.42,15.56.03,29.42,14.67,29.45,31.04.03,14.58-11.88,35.13-31.02,32.93ZM443.81,371.55c6.56.09,10.61-1.64,14.29-4.93,5.21-4.66,7.5-10.69,7.95-17.21,1.13-16.46-8.05-33.39-28.78-25.66-10.15,3.78-17.4,16.2-15.57,26.88,2.04,11.91,12.28,20.92,22.11,20.93Z"/>
  <path class="cls-2" d="M443.81,371.55c-9.83,0-20.07-9.02-22.11-20.93-1.83-10.68,5.42-23.09,15.57-26.88,20.73-7.73,29.91,9.2,28.78,25.66-.45,6.52-2.74,12.56-7.95,17.21-3.68,3.3-7.73,5.03-14.29,4.93Z"/>
</svg>