<svg width="153" height="153" viewBox="0 0 153 153" fill="none" xmlns="http://www.w3.org/2000/svg">
<g clip-path="url(#clip0_1_104)">
<rect width="153" height="153" fill="#615186"/>
<g clip-path="url(#clip1_1_104)">
<path d="M158.664 222.598C153.952 222.232 149.508 220.868 145.299 218.82C143.042 217.722 140.703 217.338 138.26 217.205C137.046 217.138 135.835 217.023 134.627 216.893C133.816 216.805 133.252 217.147 133.831 217.849C136.039 220.514 135.298 223.276 134.374 226.107C133.868 227.653 134.008 229.202 134.706 230.666C135.103 231.501 134.85 231.755 133.999 231.67C133.749 231.646 133.492 231.667 133.239 231.667C90.0086 231.667 46.7779 231.667 3.54725 231.667C1.49155 231.667 1.4153 231.537 2.34555 229.737C3.91935 226.688 3.98035 223.476 3.3612 220.196C5.4535 216.627 8.21375 213.532 10.5683 210.153C14.1216 205.056 18.1628 200.365 22.3749 195.824C27.9289 189.838 33.0529 183.491 38.4453 177.371C39.4945 176.794 40.5315 176.201 41.2879 175.233C42.8556 173.227 44.585 171.355 45.9697 169.195C46.6132 168.191 47.0036 167.307 46.6559 166.164C48.858 162.782 51.0479 159.406 54.3755 156.932C57.2059 154.829 60.3596 153.353 63.5712 151.977C65.996 150.936 68.3811 149.838 70.5832 148.374C73.0445 146.737 74.7342 144.565 75.4906 141.704C75.9786 139.855 76.5124 138.019 76.9516 136.162C77.4762 133.939 78.9097 132.417 80.7915 131.322C85.3726 128.66 89.1363 125.133 92.3388 120.967C93.3179 119.694 94.2451 118.372 95.52 117.334C96.4136 116.605 96.7674 115.634 96.1727 114.509C99.9577 114.503 103.743 114.491 107.525 114.491C108.043 114.491 108.714 114.294 108.748 115.177C108.229 115.447 107.659 115.365 107.11 115.419C104.792 115.658 102.45 115.783 100.302 116.826C99.5978 117.168 98.9604 117.622 98.939 118.49C98.9177 119.443 99.6039 119.936 100.373 120.25C101.114 120.553 101.91 120.725 102.681 120.955C104.273 121.754 105.875 121.627 107.485 121.013C112.176 120.505 116.852 120.226 121.54 121.167C122.854 121.43 123.281 122.068 123.391 123.245C123.546 124.897 123.638 126.573 124.013 128.179C124.931 132.099 125.764 136.189 129.341 138.691C131.33 140.082 132.428 141.749 132.782 144.036C132.867 144.58 133.047 145.11 133.136 145.654C136.054 163.511 140.837 181.014 143.231 198.973C144.558 208.925 149.237 216.908 158.219 222.06C158.429 222.181 158.676 222.293 158.664 222.604V222.598Z" fill="#593E2A"/>
<path d="M43.6059 86.5912C43.734 82.0174 43.856 77.4467 43.2918 72.885C43.1484 71.7355 42.7733 70.7796 41.9772 69.9235C38.0305 65.6945 35.6088 60.794 35.1452 54.9679C34.9043 51.9338 35.7705 49.2143 37.0484 46.5523C38.8235 42.8497 41.4618 39.7854 44.5392 37.1355C46.6376 35.3296 48.1657 33.1849 49.2393 30.7346C50.9564 26.8112 53.8875 24.0826 57.4621 21.9137C61.8937 19.2215 66.5511 17.0616 71.6141 15.7699C77.1102 14.3694 82.5239 15.1831 87.8706 16.384C91.3262 17.1584 94.7849 17.9298 98.2436 18.7042C107.589 20.8005 114.363 26.0126 118.233 34.9212C120.396 39.9004 121.375 45.0731 122.143 50.3608C122.497 52.7929 123.083 55.1978 123.687 57.5845C124.513 60.8515 123.989 63.8644 122.244 66.7079C121.427 68.0419 120.695 69.4092 120.13 70.8764C119.539 72.4131 118.526 73.6563 117.093 74.5427C116.592 74.8512 115.979 75.0993 115.921 75.8253C114.881 75.7375 114.07 76.7751 113.064 76.5271C109.706 75.7012 106.271 76.1671 102.88 75.913C101.852 75.8343 101.3 75.7012 100.931 74.83C100.754 74.4156 100.635 73.974 100.427 73.5777C98.8323 70.5013 97.9173 69.4244 94.3183 69.4577C92.958 69.4698 91.5733 69.5242 90.2404 69.3094C87.7272 68.9041 85.2689 69.6361 82.7771 69.4788C82.042 67.8846 81.3375 66.2874 79.6935 65.3406C77.223 63.9219 73.9473 64.9716 73.8619 67.4006C73.7247 71.3634 71.8764 74.3309 69.0246 76.8719C68.7349 77.129 68.131 77.2652 68.3323 77.8853C67.7528 77.846 67.463 78.3058 67.0696 78.5992C64.779 80.3023 62.4793 81.9237 59.4507 80.1298C59.106 79.9241 58.5692 80.0391 58.1209 80.0058C57.8464 79.0106 56.9832 79.0862 56.2268 78.9652C56.7728 79.4734 57.215 80.1782 58.1392 79.9846C58.3893 80.88 58.7583 81.7996 57.6664 82.444C57.6817 82.0084 57.5505 81.7331 57.0869 81.5304C56.2024 81.1462 55.3088 80.8256 54.3572 80.6622C52.7742 80.393 52.4174 80.6259 52.3198 82.1838C52.2008 84.0926 52.3411 85.9862 52.8352 87.8466C53.372 89.8613 54.6317 91.1499 56.6782 91.6642C57.029 92.245 57.2181 92.8197 56.602 93.3582C55.1014 93.1948 53.7441 92.7471 52.701 91.5704C51.3346 90.0307 50.5599 88.2066 50.5782 86.2101C50.6118 82.5771 47.7753 81.3852 45.3231 79.4462C45.0181 81.5879 44.7741 83.4241 44.4843 85.2512C44.3989 85.7957 44.5209 86.5459 43.6059 86.5852V86.5912ZM47.208 76.757C48.6445 77.3317 49.4284 79.1679 51.7037 78.9743C49.587 77.2218 48.0884 76.4827 47.208 76.757Z" fill="#202221"/>
<path d="M102.681 120.949C101.91 120.719 101.114 120.547 100.373 120.244C99.604 119.93 98.9177 119.437 98.9391 118.484C98.9604 117.616 99.5979 117.162 100.302 116.82C102.45 115.776 104.792 115.652 107.11 115.413C107.659 115.356 108.229 115.441 108.748 115.171C111.099 115.147 113.42 114.851 115.738 114.5C118.688 114.627 121.598 114.328 124.458 113.623C124.907 113.514 125.718 113.647 125.471 112.712C124.949 111.372 123.638 110.782 122.598 110.05C121.174 109.046 119.984 107.612 118.148 107.234C117.578 106.13 116.763 105.963 115.69 106.541C114.756 107.043 113.796 107.494 112.832 107.939C111.09 108.746 109.26 109.043 107.354 108.74C106.378 108.586 105.658 108.054 105.353 107.11C105.045 106.16 105.539 105.431 106.244 104.877C106.875 104.384 107.571 103.961 108.278 103.577C109.922 102.684 111.603 101.861 113.24 100.96C115.08 99.9467 117.01 99.26 119.115 99.0815C119.341 99.2721 119.536 99.5262 119.795 99.6472C122.397 100.857 125.218 101.429 127.926 102.33C128.131 102.4 128.524 102.361 128.619 102.224C128.899 101.828 128.503 101.568 128.25 101.377C125.529 99.3144 122.595 97.7445 119.075 97.563C117.675 97.3149 116.51 98.0228 115.296 98.4977C113.021 99.3901 110.724 100.21 108.22 99.9799C105.863 99.7652 104.975 98.0712 106.122 96.0172C106.366 95.5816 106.659 95.149 107.019 94.8072C108.571 93.3431 109.919 91.7187 111.118 89.9611C111.712 89.0899 112.554 88.4759 113.582 88.3186C115.619 88.007 117.59 87.3173 119.673 87.281C121.622 88.4154 123.775 87.8043 125.846 88.0524C124.126 86.2525 121.921 86.0801 119.658 86.0952C117.77 85.8078 115.848 85.6535 114.076 84.867C112.56 84.1925 111.716 82.922 111.987 81.7452C112.335 80.2479 113.558 79.9514 114.86 79.7669C116.205 79.5793 117.544 79.3555 118.886 79.1468C124.181 78.6113 128.49 81.0192 132.629 83.7901C134.048 84.74 134.533 86.4703 135.207 87.9798C137.012 92.0151 137.769 96.3923 139.312 100.512C139.516 101.057 139.507 101.601 139.483 102.146C139.342 105.274 139.754 108.314 140.556 111.351C140.931 112.767 140.691 114.346 140.7 115.852C140.706 116.569 140.7 117.268 141.304 117.791C141.267 119.821 142.228 121.675 142.273 123.711C142.359 127.556 143.506 131.107 145.467 134.441C147.257 137.478 148.892 140.609 150.618 143.685C158.408 157.564 165.615 171.775 174.89 184.81C177.775 188.867 180.652 192.984 180.877 198.41C181.042 202.388 182.158 206.324 182.854 210.281C182.628 210.819 182.305 211.273 182.835 211.92C183.287 212.471 183.086 213.278 182.948 213.962C182.604 215.656 182.701 217.338 182.896 219.038C183.143 221.195 182.198 223.064 181.127 224.813C179.828 226.933 178.035 228.455 175.403 228.839C174.234 229.011 173.194 228.694 172.157 228.385C169.01 227.447 166.082 225.974 163.163 224.507C162.257 224.05 161.385 223.606 160.372 223.409C159.756 223.288 159.051 223.234 158.652 222.601C158.667 222.29 158.417 222.178 158.207 222.057C149.227 216.905 144.546 208.922 143.219 198.97C140.825 181.011 136.042 163.508 133.123 145.651C133.035 145.107 132.852 144.578 132.77 144.033C132.416 141.743 131.318 140.076 129.329 138.688C125.752 136.186 124.919 132.096 124.001 128.176C123.626 126.57 123.534 124.894 123.379 123.242C123.266 122.065 122.842 121.427 121.527 121.164C116.84 120.226 112.164 120.502 107.473 121.01C105.872 120.992 104.27 120.97 102.669 120.952L102.681 120.949Z" fill="#FCEEE5"/>
<path d="M-26.788 221.422C-29.0999 217.229 -31.3875 213.039 -32.092 208.196C-32.4763 205.558 -32.0188 203.075 -30.9971 200.688C-29.8716 198.056 -29.2037 195.416 -29.466 192.506C-29.9235 187.384 -28.3497 182.747 -24.9154 178.999C-21.3194 175.079 -20.8497 171.013 -23.0548 166.391C-23.6618 165.12 -24.1102 163.777 -24.6958 162.498C-25.6718 160.359 -25.5284 158.311 -24.3541 156.29C-23.0518 154.049 -21.6244 151.862 -19.3857 150.47C-15.2987 147.926 -13.7249 144.387 -14.1244 139.644C-14.5911 134.075 -12.1389 130.115 -6.88375 127.789C-2.5924 125.889 0.613153 122.486 3.92545 119.319C8.44555 114.996 13.6611 112.313 19.9807 111.965C21.3898 111.889 22.8294 111.947 24.2232 112.143C27.3281 112.576 30.3751 112.431 33.422 111.696C36.2372 111.015 39.0859 110.525 42.0017 111.109C43.2796 111.363 44.1153 110.698 44.8229 109.748C45.4207 108.946 45.7806 107.975 46.5797 107.313C47.327 109.07 47.94 110.9 48.8581 112.564C49.5687 113.85 49.3064 114.669 48.4524 115.734C45.3292 119.63 43.0875 123.968 41.8278 128.832C41.166 131.389 39.7691 133.73 39.4183 136.407C39.3665 136.797 38.9761 137.193 38.6558 137.496C33.8307 142.049 30.5947 147.79 26.7578 153.084C24.4001 155.601 21.9815 158.063 20.1423 161.003C18.1629 163.157 16.6104 165.653 14.5364 167.737C8.68345 173.627 2.3364 178.863 -4.61455 183.479C-17.7661 192.212 -25.0648 204.497 -26.2543 220.245C-26.2848 220.662 -25.9768 221.322 -26.7911 221.425L-26.788 221.422Z" fill="#593E2A"/>
<path d="M26.7608 153.084C30.5947 147.79 33.8338 142.049 38.6589 137.496C38.9791 137.193 39.3695 136.8 39.4214 136.407C39.7721 133.73 41.169 131.386 41.8309 128.832C43.0905 123.968 45.3353 119.633 48.4555 115.734C49.3095 114.669 49.5687 113.85 48.8611 112.564C47.9431 110.9 47.327 109.07 46.5828 107.313C46.5523 104.962 45.3902 102.89 44.9358 100.636C44.1946 96.967 43.1485 93.3613 43.2369 89.5619C43.2613 88.5455 43.6151 87.5956 43.609 86.5883C44.524 86.552 44.399 85.8018 44.4874 85.2543C44.7772 83.4272 45.0212 81.591 45.3262 79.4493C47.7753 81.3883 50.6149 82.5802 50.5813 86.2132C50.563 88.2066 51.3377 90.0337 52.7041 91.5735C53.7472 92.7502 55.1045 93.1979 56.6051 93.3613C56.6234 94.8586 56.6386 96.356 56.6569 97.8564C56.5563 98.8637 56.5197 99.8741 56.663 100.881C56.6051 101.511 56.5319 102.14 56.7576 102.875C58.1667 100.999 58.615 98.9726 58.5144 96.7795C58.4686 95.7631 58.4503 94.662 59.6429 94.2536C60.9361 93.809 61.8633 94.5622 62.6349 95.4909C63.5713 96.6162 63.7573 98.0288 64.0928 99.384C64.0928 101.087 64.0867 102.79 64.0837 104.493C63.736 106.986 63.2571 109.448 62.275 111.78C62.0554 112.301 62.1622 112.552 62.5739 112.912C64.4924 114.588 67.0147 114.833 69.0918 113.405C73.2916 110.516 77.8087 109.494 82.7924 110.982C83.9788 111.336 85.2964 111.72 85.757 112.891C86.2968 114.27 87.1112 114.213 88.2031 113.901C88.5416 113.804 88.9015 113.713 89.2492 113.719C91.5825 113.747 94.0133 112.963 96.1758 114.5C96.7705 115.625 96.4167 116.596 95.5231 117.325C94.2482 118.366 93.321 119.685 92.3419 120.958C89.1394 125.124 85.3757 128.651 80.7946 131.313C78.9128 132.405 77.4793 133.93 76.9547 136.153C76.5155 138.013 75.9817 139.849 75.4937 141.695C74.7373 144.553 73.0476 146.728 70.5863 148.365C68.3842 149.829 65.996 150.93 63.5743 151.968C60.3596 153.344 57.2059 154.82 54.3786 156.923C51.051 159.397 48.8611 162.773 46.659 166.155C46.1649 165.662 45.8081 165.138 45.6342 164.415C45.3994 163.432 44.8504 162.588 43.6639 162.47C43.1271 162.074 42.5903 161.678 42.0566 161.285C42.0108 160.698 41.6113 160.637 41.1416 160.686C41.0531 160.459 41.0318 160.156 40.8701 160.02C38.7931 158.296 36.4354 156.738 33.791 156.578C30.7807 156.396 29.149 154.14 26.77 153.087L26.7608 153.084Z" fill="#FCEEE5"/>
<path d="M64.0867 99.384C63.7512 98.0318 63.5621 96.6161 62.6288 95.4908C61.8571 94.5622 60.9299 93.812 59.6367 94.2536C58.4472 94.662 58.4625 95.7601 58.5082 96.7795C58.6089 98.9726 58.1605 100.999 56.7514 102.875C56.5257 102.14 56.5989 101.511 56.6569 100.881C57.1449 99.871 57.1479 98.8637 56.6508 97.8564C56.6325 96.359 56.6172 94.8616 56.5989 93.3612C57.215 92.8228 57.0259 92.248 56.6752 91.6672C57.0046 88.5938 57.334 85.5204 57.6634 82.444C58.7553 81.7997 58.3862 80.8831 58.1361 79.9847L58.1178 80.0059C58.5662 80.0391 59.103 79.9242 59.4476 80.1299C62.4763 81.9237 64.776 80.3023 67.0665 78.5992C67.46 78.3088 67.7497 77.846 68.3292 77.8853C69.5187 77.8037 70.7082 77.725 71.8947 77.6433C73.5295 78.0124 75.1612 78.3603 76.7411 77.4467C76.8204 77.0565 76.9272 76.6663 76.9729 76.273C77.3938 72.7368 79.1476 70.3228 82.774 69.4789C85.2628 69.6362 87.7242 68.9041 90.2374 69.3095C91.5702 69.5242 92.9549 69.4698 94.3152 69.4577C97.9173 69.4244 98.8292 70.4983 100.424 73.5777C100.632 73.977 100.751 74.4157 100.928 74.8301C101.297 75.7013 101.849 75.8344 102.877 75.913C106.268 76.1702 109.703 75.7043 113.061 76.5271C114.067 76.7752 114.881 75.7376 115.918 75.8253C117.358 76.5362 118.486 77.5223 118.886 79.1468C117.544 79.3555 116.205 79.5793 114.86 79.7669C113.558 79.9484 112.338 80.2479 111.987 81.7452C111.712 82.922 112.56 84.1925 114.076 84.867C115.845 85.6535 117.77 85.8108 119.658 86.0952C119.664 86.4915 119.667 86.8877 119.673 87.281C117.59 87.3173 115.619 88.007 113.582 88.3186C112.554 88.4759 111.712 89.0899 111.118 89.9611C109.922 91.7187 108.571 93.3431 107.019 94.8072C106.659 95.149 106.363 95.5816 106.122 96.0172C104.975 98.0712 105.863 99.7652 108.22 99.9799C110.724 100.21 113.018 99.3901 115.296 98.4977C116.51 98.0228 117.675 97.3149 119.075 97.563C119.087 98.0681 119.1 98.5733 119.112 99.0785C117.007 99.2539 115.074 99.9406 113.237 100.957C111.6 101.861 109.919 102.681 108.275 103.574C107.568 103.958 106.872 104.381 106.241 104.874C105.536 105.425 105.042 106.157 105.35 107.107C105.655 108.051 106.375 108.583 107.351 108.737C109.257 109.04 111.087 108.743 112.829 107.936C113.793 107.491 114.753 107.037 115.687 106.538C116.76 105.96 117.578 106.127 118.145 107.231C117.66 108.293 117.474 109.403 117.568 110.564C117.498 112.125 117.172 113.568 115.732 114.5C113.414 114.851 111.09 115.147 108.742 115.171C108.708 114.288 108.034 114.488 107.519 114.485C103.734 114.485 99.9486 114.494 96.1666 114.503C94.0072 112.966 91.5733 113.75 89.24 113.723C88.8923 113.719 88.5324 113.807 88.1939 113.904C87.102 114.213 86.2876 114.273 85.7478 112.894C85.2903 111.72 83.9696 111.339 82.7832 110.985C77.8025 109.497 73.2855 110.519 69.0826 113.408C67.0055 114.836 64.4832 114.591 62.5647 112.915C62.153 112.555 62.0462 112.304 62.2658 111.783C63.2479 109.451 63.7268 106.989 64.0745 104.496C64.779 104.306 64.6296 103.71 64.5594 103.277C64.349 101.986 65.1481 100.57 64.0836 99.387L64.0867 99.384ZM89.8531 108.755C91.0182 108.873 92.4151 108.311 93.8638 108.163C96.3587 107.908 98.1155 106.641 99.6649 104.756C102.181 101.701 103.45 98.1438 103.453 94.3534C103.453 91.516 103.731 88.1764 100.26 86.561C100.089 86.4824 99.9303 86.3009 99.8449 86.1285C99.1129 84.6976 97.7251 84.1955 96.3587 83.6449C93.632 82.5469 90.8748 82.3654 87.9194 82.683C82.1457 83.3061 78.4125 86.3281 76.3629 91.522C75.7712 93.0224 75.4601 94.659 75.6828 96.362C76.1708 100.092 78.3515 102.73 80.9532 105.237C83.384 107.579 86.1839 108.749 89.8592 108.752L89.8531 108.755ZM65.5232 87.5169C65.4866 88.733 65.4897 89.6828 65.7642 90.6115C65.8801 91.0048 65.938 91.4162 66.4291 91.5099C66.8408 91.5886 67.1153 91.3284 67.3075 91.035C68.5488 89.1353 70.1714 87.5411 71.5561 85.7594C73.4197 83.3636 73.2977 83.0339 70.3239 82.8705C67.765 82.7284 66.6151 83.2759 65.694 85.4025C65.3616 86.1708 65.5781 86.9906 65.5232 87.52V87.5169ZM104.746 82.9371C104.819 82.0296 104.679 81.1947 104.502 80.3537C104.164 78.7414 102.337 77.8521 100.882 78.6023C100.559 78.7686 100.437 79.0258 100.498 79.3373C100.983 81.8118 101.684 84.2076 103.145 86.316C103.365 86.6306 103.715 86.7335 104.091 86.6155C104.45 86.5036 104.453 86.1738 104.484 85.8744C104.582 84.8791 104.893 83.9021 104.746 82.9341V82.9371ZM99.3356 76.6784C99.6162 76.6511 100.604 76.7812 100.104 75.7315C99.3752 74.1979 98.5121 72.7156 97.411 71.3937C97.2616 71.2122 97.0603 70.9883 96.7705 71.1335C96.496 71.2697 96.5357 71.5601 96.5418 71.796C96.5936 73.3236 97.0755 74.7484 97.6916 76.1248C97.9264 76.6511 98.4541 76.7358 99.3325 76.6784H99.3356Z" fill="#383838"/>
<path d="M182.863 210.277C182.17 206.324 181.054 202.385 180.886 198.407C180.661 192.981 177.785 188.86 174.899 184.807C165.627 171.772 158.42 157.564 150.627 143.682C148.901 140.606 147.266 137.478 145.476 134.438C143.512 131.107 142.368 127.553 142.283 123.708C142.237 121.672 141.276 119.818 141.313 117.788C146.72 120.187 151.091 124.204 156.16 127.135C157.847 128.109 159.216 129.437 160.043 131.258C160.549 132.378 161.491 133.197 162.327 134.063C164.026 135.826 164.682 137.913 164.972 140.306C165.639 145.794 165.514 151.335 166.28 156.814C166.728 160.026 167.491 163.112 169.068 165.991C170.035 167.752 170.876 169.591 171.639 171.452C172.423 173.363 173.978 174.585 175.409 175.916C176.266 176.715 177.031 177.574 177.693 178.527C178.413 179.568 178.733 180.657 178.242 181.936C177.666 183.44 178.087 184.722 179.181 185.938C182.207 189.299 183.702 193.262 183.631 197.79C183.604 199.614 184.19 201.36 184.409 203.154C184.72 205.682 184.077 208.048 182.863 210.271V210.277Z" fill="#5A3F2C"/>
<path d="M102.681 120.949C104.283 120.967 105.884 120.989 107.485 121.007C105.878 121.621 104.274 121.748 102.681 120.949Z" fill="#202221"/>
<path d="M82.7771 69.4819C79.1537 70.3259 77.4 72.7368 76.976 76.2761C76.9303 76.6723 76.8205 77.0595 76.7412 77.4498C75.1247 77.5163 73.5082 77.5829 71.8947 77.6464C70.7052 77.7281 69.5188 77.8067 68.3293 77.8884C68.128 77.2683 68.7319 77.1321 69.0216 76.875C71.8734 74.334 73.7217 71.3695 73.8589 67.4037C73.9443 64.9716 77.22 63.925 79.6905 65.3437C81.3375 66.2905 82.0421 67.8877 82.7741 69.4819H82.7771Z" fill="#F6EAE1"/>
<path d="M57.6634 82.4471C57.334 85.5205 57.0046 88.5939 56.6752 91.6703C54.6287 91.156 53.369 89.8674 52.8322 87.8527C52.3381 85.9924 52.1978 84.0987 52.3168 82.1899C52.4144 80.6321 52.7681 80.3991 54.3541 80.6684C55.3057 80.8287 56.1994 81.1524 57.0839 81.5365C57.5475 81.7392 57.6787 82.0145 57.6634 82.4501V82.4471Z" fill="#F6EAE1"/>
<path d="M47.208 76.757C48.0864 76.4827 49.585 77.2218 51.7037 78.9743C49.4284 79.1649 48.6476 77.3317 47.208 76.757Z" fill="#F6EAE1"/>
<path d="M58.1362 79.9877C57.2151 80.1813 56.7698 79.4765 56.2238 78.9683C56.9772 79.0893 57.8434 79.0106 58.1179 80.0089L58.1362 79.9877Z" fill="#C0C0C0"/>
<path d="M115.738 114.494C117.178 113.562 117.504 112.119 117.575 110.558C120.201 111.293 122.708 112.473 125.471 112.706C125.715 113.638 124.904 113.505 124.458 113.617C121.597 114.321 118.688 114.621 115.738 114.494Z" fill="#5A3F2C"/>
<path d="M64.0867 99.384C65.1512 100.567 64.3521 101.982 64.5625 103.274C64.6327 103.707 64.7821 104.303 64.0776 104.493C64.0776 102.79 64.0837 101.087 64.0867 99.384Z" fill="#202221"/>
<path d="M56.6508 97.8564C57.151 98.8637 57.1449 99.871 56.6569 100.881C56.5135 99.8741 56.5501 98.8637 56.6508 97.8564Z" fill="#202221"/>
<path d="M89.8531 108.755C86.1779 108.752 83.378 107.585 80.9471 105.24C78.3455 102.736 76.1647 100.095 75.6767 96.365C75.4541 94.6589 75.7652 93.0254 76.3569 91.525C78.4065 86.3311 82.1397 83.3061 87.9133 82.686C90.8688 82.3684 93.626 82.5499 96.3527 83.6479C97.7221 84.1985 99.1068 84.7007 99.8388 86.1315C99.9272 86.3039 100.083 86.4854 100.254 86.5641C103.724 88.1794 103.45 91.519 103.447 94.3565C103.447 98.1468 102.175 101.704 99.6589 104.759C98.1064 106.644 96.3496 107.911 93.8577 108.166C92.412 108.314 91.0121 108.876 89.847 108.758L89.8531 108.755ZM89.6182 106.018C95.9317 106.423 100.476 101.562 100.507 95.3577C100.54 88.6392 95.6999 84.8519 89.054 84.5857C84.6864 84.4133 78.3516 89.7403 78.4919 95.0673C78.6535 101.172 83.5213 106.472 89.6152 106.018H89.6182Z" fill="#262525"/>
<path d="M65.5233 87.517C65.5782 86.9876 65.3586 86.1708 65.6941 85.3995C66.6152 83.2729 67.762 82.7254 70.324 82.8675C73.2977 83.0339 73.4197 83.3606 71.5562 85.7564C70.1715 87.5351 68.5519 89.1323 67.3075 91.032C67.1154 91.3254 66.8409 91.5856 66.4291 91.5069C65.9381 91.4132 65.8832 91.0018 65.7642 90.6085C65.4897 89.6768 65.4867 88.73 65.5233 87.5139V87.517Z" fill="#787878"/>
<path d="M104.746 82.9371C104.89 83.9051 104.578 84.8821 104.484 85.8774C104.456 86.1738 104.45 86.5066 104.09 86.6185C103.715 86.7365 103.365 86.6336 103.145 86.319C101.684 84.2106 100.983 81.8148 100.498 79.3403C100.437 79.0288 100.559 78.7716 100.882 78.6053C102.337 77.8551 104.164 78.7444 104.502 80.3567C104.679 81.1977 104.819 82.0326 104.746 82.9401V82.9371Z" fill="#787878"/>
<path d="M99.3355 76.6783C98.4571 76.7358 97.9295 76.6511 97.6946 76.1247C97.0785 74.7484 96.5966 73.3236 96.5448 71.796C96.5356 71.56 96.499 71.2696 96.7735 71.1335C97.0633 70.9883 97.2646 71.2122 97.414 71.3937C98.512 72.7156 99.3782 74.2009 100.107 75.7315C100.607 76.7812 99.6192 76.6511 99.3386 76.6783H99.3355Z" fill="#787878"/>
<path d="M71.8947 77.6463C73.5112 77.5798 75.1277 77.5132 76.7412 77.4497C75.1613 78.3633 73.5265 78.0154 71.8947 77.6463Z" fill="#202221"/>
<path d="M89.6182 106.018C83.5243 106.472 78.6565 101.172 78.4949 95.0673C78.3546 89.7373 84.6894 84.4133 89.057 84.5857C95.703 84.8489 100.543 88.6392 100.51 95.3577C100.476 101.565 95.9318 106.426 89.6213 106.018H89.6182ZM89.8348 104.826C95.6755 105.491 99.3051 99.2751 99.2959 94.8646C99.2868 89.9127 95.0594 85.4811 90.3136 85.475C84.6132 85.466 79.84 89.8159 79.7942 94.9796C79.7546 99.3749 84.421 105.334 89.8348 104.826Z" fill="#383838"/>
<path d="M89.8348 104.826C84.4211 105.334 79.7515 99.3749 79.7942 94.9796C79.843 89.8159 84.6163 85.466 90.3137 85.4751C95.0595 85.4841 99.2868 89.9127 99.2959 94.8647C99.3051 99.2751 95.6725 105.491 89.8348 104.826ZM89.3621 102.394C91.3629 102.421 92.5981 101.898 93.7205 100.903C95.3096 99.4929 96.008 97.6688 96.1453 95.6965C96.4899 90.7174 93.69 85.5961 87.3674 87.9344C84.2716 89.0778 82.0604 92.8349 82.6185 96.0656C83.2407 99.6684 86.3639 102.394 89.3621 102.397V102.394Z" fill="#636363"/>
<path d="M89.3621 102.394C86.3639 102.394 83.2407 99.6653 82.6185 96.0625C82.0604 92.8318 84.2716 89.0778 87.3674 87.9313C93.69 85.593 96.4899 90.7143 96.1452 95.6935C96.008 97.6658 95.3096 99.4929 93.7205 100.9C92.5981 101.898 91.3629 102.421 89.3621 102.391V102.394Z" fill="#A5A5A5"/>
</g>
</g>
<defs>
<clipPath id="clip0_1_104">
<rect width="153" height="153" fill="white"/>
</clipPath>
<clipPath id="clip1_1_104">
<rect width="218" height="217" fill="white" transform="translate(-33 15)"/>
</clipPath>
</defs>
</svg>
