<svg width="257" height="52" viewBox="0 0 257 52" fill="none" xmlns="http://www.w3.org/2000/svg">
<g clip-path="url(#clip0_1_222)">
<g clip-path="url(#clip1_1_222)">
<mask id="mask0_1_222" style="mask-type:luminance" maskUnits="userSpaceOnUse" x="0" y="0" width="52" height="52">
<path d="M52 0H0V52H52V0Z" fill="white"/>
</mask>
<g mask="url(#mask0_1_222)">
<path d="M52 0H0V52H52V0Z" fill="#615186"/>
<mask id="mask1_1_222" style="mask-type:luminance" maskUnits="userSpaceOnUse" x="-12" y="5" width="75" height="74">
<path d="M62.8758 5.09805H-11.2157V78.8497H62.8758V5.09805Z" fill="white"/>
</mask>
<g mask="url(#mask1_1_222)">
<path d="M53.925 75.6543C52.3236 75.5299 50.8132 75.0663 49.3827 74.3702C48.6156 73.9971 47.8206 73.8666 46.9903 73.8213C46.5777 73.7986 46.1661 73.7595 45.7556 73.7153C45.48 73.6854 45.2883 73.8016 45.4851 74.0402C46.2355 74.946 45.9836 75.8847 45.6696 76.8469C45.4976 77.3723 45.5452 77.8988 45.7824 78.3963C45.9174 78.6801 45.8314 78.7664 45.5421 78.7376C45.4572 78.7294 45.3698 78.7365 45.2839 78.7365C30.5912 78.7365 15.8984 78.7365 1.20561 78.7365C0.50694 78.7365 0.481025 78.6924 0.797188 78.0806C1.33207 77.0443 1.35281 75.9527 1.14238 74.8379C1.85349 73.6249 2.79161 72.573 3.59185 71.4246C4.79951 69.6923 6.17299 68.0979 7.60455 66.5546C9.49218 64.5201 11.2337 62.363 13.0664 60.283C13.423 60.0869 13.7754 59.8853 14.0325 59.5564C14.5653 58.8746 15.1531 58.2383 15.6237 57.5042C15.8424 57.163 15.9751 56.8625 15.8569 56.4741C16.6053 55.3246 17.3496 54.1772 18.4806 53.3364C19.4425 52.6217 20.5144 52.12 21.6059 51.6524C22.43 51.2986 23.2406 50.9254 23.9891 50.4278C24.8256 49.8714 25.3999 49.1332 25.6569 48.1609C25.8228 47.5325 26.0042 46.9085 26.1535 46.2773C26.3318 45.5218 26.819 45.0045 27.4586 44.6324C29.0155 43.7276 30.2947 42.5289 31.3831 41.113C31.7159 40.6804 32.031 40.231 32.4643 39.8783C32.768 39.6305 32.8883 39.3005 32.6862 38.9181C33.9726 38.9161 35.2591 38.912 36.5445 38.912C36.7205 38.912 36.9486 38.8451 36.9601 39.1452C36.7837 39.2369 36.59 39.2091 36.4034 39.2274C35.6156 39.3086 34.8196 39.3511 34.0896 39.7056C33.8502 39.8218 33.6336 39.9761 33.6263 40.2712C33.6191 40.595 33.8523 40.7626 34.1137 40.8693C34.3656 40.9723 34.6361 41.0308 34.8981 41.1089C35.4392 41.3805 35.9837 41.3373 36.5309 41.1286C38.1252 40.956 39.7144 40.8612 41.3077 41.181C41.7543 41.2704 41.8994 41.4872 41.9368 41.8872C41.9895 42.4487 42.0208 43.0183 42.1482 43.5641C42.4602 44.8964 42.7433 46.2865 43.959 47.1368C44.635 47.6096 45.0082 48.1762 45.1285 48.9535C45.1574 49.1383 45.2186 49.3185 45.2488 49.5034C46.2406 55.5724 47.8662 61.5211 48.6798 67.6249C49.1308 71.0072 50.7211 73.7204 53.7738 75.4714C53.8452 75.5125 53.9291 75.5506 53.925 75.6563V75.6543Z" fill="#593E2A"/>
<path d="M14.8203 29.4297C14.8638 27.8752 14.9053 26.3218 14.7136 24.7714C14.6648 24.3807 14.5373 24.0558 14.2668 23.7649C12.9254 22.3276 12.1023 20.662 11.9448 18.6819C11.8629 17.6507 12.1573 16.7265 12.5916 15.8217C13.1949 14.5633 14.0916 13.5219 15.1375 12.6212C15.8507 12.0075 16.37 11.2786 16.7349 10.4458C17.3185 9.11233 18.3147 8.18496 19.5296 7.44782C21.0358 6.53283 22.6187 5.79874 24.3394 5.35973C26.2074 4.88375 28.0473 5.1603 29.8645 5.56845C31.039 5.83164 32.2145 6.09382 33.39 6.35701C36.5662 7.06948 38.8685 8.84091 40.1838 11.8687C40.9189 13.5609 41.2516 15.319 41.5127 17.1161C41.633 17.9427 41.8321 18.7601 42.0374 19.5712C42.3181 20.6816 42.1401 21.7056 41.547 22.672C41.2693 23.1254 41.0205 23.5901 40.8285 24.0887C40.6276 24.611 40.2833 25.0335 39.7963 25.3348C39.626 25.4397 39.4177 25.524 39.398 25.7707C39.0445 25.7409 38.7689 26.0935 38.427 26.0092C37.2857 25.7285 36.1182 25.8869 34.9657 25.8005C34.6164 25.7738 34.4288 25.7285 34.3033 25.4324C34.2432 25.2916 34.2027 25.1415 34.1321 25.0068C33.5901 23.9613 33.2791 23.5952 32.0559 23.6066C31.5936 23.6107 31.123 23.6292 30.6699 23.5562C29.8158 23.4184 28.9803 23.6672 28.1334 23.6137C27.8836 23.0719 27.6441 22.5291 27.0854 22.2073C26.2457 21.7251 25.1324 22.0819 25.1034 22.9074C25.0568 24.2543 24.4286 25.2628 23.4593 26.1264C23.3609 26.2138 23.1556 26.2601 23.224 26.4708C23.0271 26.4575 22.9286 26.6138 22.7949 26.7135C22.0164 27.2923 21.2348 27.8434 20.2055 27.2337C20.0883 27.1638 19.9059 27.2029 19.7535 27.1915C19.6602 26.8533 19.3668 26.879 19.1098 26.8379C19.2953 27.0106 19.4456 27.2501 19.7597 27.1843C19.8447 27.4887 19.9701 27.8012 19.599 28.0202C19.6042 27.8722 19.5596 27.7786 19.4021 27.7097C19.1015 27.5791 18.7978 27.4702 18.4743 27.4146C17.9363 27.3231 17.8151 27.4023 17.7819 27.9318C17.7414 28.5805 17.7891 29.2241 17.9571 29.8564C18.1395 30.5411 18.5676 30.9791 19.2632 31.1539C19.3824 31.3513 19.4467 31.5466 19.2373 31.7296C18.7273 31.6741 18.266 31.5219 17.9115 31.122C17.4471 30.5987 17.1838 29.9787 17.19 29.3002C17.2014 28.0654 16.2374 27.6604 15.4039 27.0014C15.3003 27.7292 15.2173 28.3533 15.1188 28.9743C15.0898 29.1594 15.1313 29.4143 14.8203 29.4277V29.4297ZM16.0445 26.0874C16.5328 26.2827 16.7992 26.9068 17.5725 26.841C16.8531 26.2453 16.3438 25.9942 16.0445 26.0874Z" fill="#202221"/>
<path d="M34.8981 41.1069C34.6361 41.0287 34.3656 40.9703 34.1137 40.8673C33.8523 40.7606 33.6191 40.593 33.6264 40.2691C33.6336 39.9741 33.8503 39.8198 34.0896 39.7036C34.8196 39.3487 35.6156 39.3066 36.4034 39.2254C36.59 39.206 36.7837 39.2349 36.9601 39.1431C37.7591 39.135 38.548 39.0344 39.3358 38.9151C40.3384 38.9582 41.3274 38.8566 42.2995 38.617C42.4521 38.5799 42.7277 38.6251 42.6437 38.3074C42.4663 37.8519 42.0208 37.6514 41.6673 37.4026C41.1833 37.0614 40.7789 36.574 40.1549 36.4456C39.9612 36.0704 39.6842 36.0136 39.3195 36.21C39.002 36.3807 38.6758 36.5339 38.3481 36.6852C37.7561 36.9595 37.1341 37.0604 36.4863 36.9574C36.1546 36.9051 35.9099 36.7243 35.8063 36.4034C35.7016 36.0805 35.8695 35.8328 36.1091 35.6445C36.3235 35.4769 36.5601 35.3332 36.8004 35.2027C37.3591 34.8992 37.9304 34.6195 38.4868 34.3132C39.1122 33.9688 39.7681 33.7355 40.4835 33.6748C40.5603 33.7396 40.6266 33.8259 40.7147 33.867C41.599 34.2782 42.5578 34.4726 43.4781 34.7789C43.5478 34.8026 43.6814 34.7894 43.7137 34.7428C43.8088 34.6082 43.6742 34.5199 43.5882 34.455C42.6635 33.7539 41.6663 33.2204 40.4699 33.1587C39.9941 33.0744 39.5982 33.315 39.1856 33.4764C38.4124 33.7797 37.6317 34.0583 36.7807 33.9801C35.9796 33.9072 35.6778 33.3314 36.0676 32.6333C36.1505 32.4853 36.2501 32.3382 36.3725 32.2221C36.9 31.7245 37.3581 31.1724 37.7656 30.575C37.9675 30.2789 38.2537 30.0703 38.603 30.0168C39.2954 29.9109 39.9652 29.6765 40.6732 29.6642C41.3356 30.0497 42.0673 29.842 42.7712 29.9263C42.1866 29.3146 41.4372 29.256 40.6681 29.2611C40.0264 29.1635 39.3732 29.111 38.7709 28.8437C38.2557 28.6145 37.9688 28.1827 38.061 27.7827C38.1792 27.2738 38.5949 27.1731 39.0374 27.1103C39.4945 27.0466 39.9496 26.9705 40.4057 26.8996C42.2053 26.7176 43.6698 27.536 45.0765 28.4777C45.5588 28.8005 45.7236 29.3886 45.9527 29.9017C46.5662 31.2731 46.8235 32.7608 47.3479 34.161C47.4172 34.3462 47.4142 34.5311 47.406 34.7163C47.3581 35.7794 47.4981 36.8126 47.7707 37.8448C47.8981 38.3261 47.8166 38.8627 47.8196 39.3746C47.8217 39.6182 47.8196 39.8558 48.0249 40.0336C48.0123 40.7235 48.3389 41.3536 48.3542 42.0456C48.3835 43.3524 48.7733 44.5593 49.4398 45.6924C50.0481 46.7246 50.6038 47.7887 51.1904 48.8341C53.838 53.5512 56.2875 58.3811 59.4397 62.8113C60.4203 64.1901 61.3981 65.5894 61.4745 67.4335C61.5306 68.7855 61.9099 70.1232 62.1465 71.4681C62.0697 71.6509 61.9599 71.8052 62.14 72.0251C62.2936 72.2124 62.2253 72.4867 62.1784 72.7191C62.0615 73.2949 62.0945 73.8665 62.1607 74.4443C62.2447 75.1774 61.9235 75.8126 61.5595 76.4071C61.118 77.1276 60.5086 77.6449 59.6141 77.7754C59.2168 77.8338 58.8633 77.7261 58.5109 77.6211C57.4413 77.3023 56.4462 76.8017 55.4541 76.3031C55.1462 76.1477 54.8498 75.9968 54.5055 75.9299C54.2962 75.8888 54.0566 75.8704 53.9209 75.6553C53.926 75.5496 53.8411 75.5115 53.7697 75.4704C50.7177 73.7194 49.1268 71.0062 48.6757 67.6238C47.8621 61.5201 46.2365 55.5714 45.2444 49.5023C45.2145 49.3174 45.1523 49.1376 45.1245 48.9524C45.0041 48.1741 44.631 47.6076 43.955 47.1358C42.7393 46.2855 42.4561 44.8954 42.1441 43.5631C42.0167 43.0173 41.9854 42.4477 41.9327 41.8862C41.8943 41.4862 41.7502 41.2693 41.3033 41.1799C39.7103 40.8612 38.1211 40.955 36.5268 41.1276C35.9827 41.1215 35.4382 41.114 34.894 41.1079L34.8981 41.1069Z" fill="#FCEEE5"/>
<path d="M-9.10441 75.2546C-9.89015 73.8295 -10.6676 72.4054 -10.9071 70.7594C-11.0377 69.8629 -10.8822 69.019 -10.535 68.2077C-10.1524 67.3132 -9.92543 66.4159 -10.0146 65.4269C-10.1701 63.6861 -9.63518 62.1101 -8.46797 60.8363C-7.2458 59.504 -7.08616 58.1221 -7.83561 56.5512C-8.04191 56.1192 -8.19431 55.6628 -8.39334 55.2281C-8.72505 54.5011 -8.67631 53.8051 -8.2772 53.1182C-7.83459 52.3565 -7.34946 51.6132 -6.5886 51.1402C-5.19955 50.2755 -4.66466 49.0727 -4.80044 47.4607C-4.95906 45.568 -4.12563 44.2221 -2.33957 43.4316C-0.881068 42.7858 0.208401 41.6292 1.33415 40.5529C2.87039 39.0836 4.643 38.1718 6.79083 38.0535C7.26974 38.0277 7.75902 38.0474 8.23273 38.114C9.28799 38.2611 10.3236 38.2119 11.3591 37.9621C12.3159 37.7306 13.2841 37.5641 14.2751 37.7626C14.7094 37.8489 14.9934 37.6229 15.2339 37.3C15.4371 37.0274 15.5594 36.6974 15.831 36.4724C16.085 37.0696 16.2933 37.6915 16.6054 38.2571C16.8469 38.6941 16.7577 38.9725 16.4675 39.3345C15.406 40.6586 14.6441 42.1329 14.216 43.7861C13.9911 44.6551 13.5163 45.4507 13.3971 46.3606C13.3795 46.4931 13.2468 46.6277 13.1379 46.7307C11.498 48.2781 10.3982 50.2293 9.09416 52.0286C8.29285 52.884 7.47085 53.7208 6.84576 54.72C6.17302 55.4521 5.64537 56.3004 4.94049 57.0087C2.95125 59.0105 0.794079 60.7901 -1.56834 62.3589C-6.03814 65.327 -8.51875 69.5023 -8.92302 74.8545C-8.93339 74.9963 -8.82871 75.2206 -9.10546 75.2556L-9.10441 75.2546Z" fill="#593E2A"/>
<path d="M9.09518 52.0286C10.3982 50.2293 11.4991 48.2781 13.139 46.7307C13.2478 46.6277 13.3805 46.4942 13.3981 46.3606C13.5173 45.4508 13.9921 44.6541 14.217 43.7861C14.6451 42.1329 15.4081 40.6596 16.4685 39.3345C16.7588 38.9725 16.8469 38.6942 16.6064 38.2571C16.2944 37.6915 16.085 37.0696 15.8321 36.4724C15.8217 35.6734 15.4267 34.9692 15.2723 34.2031C15.0204 32.9561 14.6649 31.7307 14.6949 30.4394C14.7032 30.0939 14.8234 29.7711 14.8214 29.4287C15.1324 29.4164 15.0899 29.1614 15.1199 28.9754C15.2184 28.3544 15.3013 27.7303 15.405 27.0024C16.2374 27.6614 17.2025 28.0665 17.191 29.3013C17.1848 29.9787 17.4481 30.5997 17.9125 31.1231C18.267 31.523 18.7283 31.6751 19.2383 31.7307C19.2446 32.2396 19.2497 32.7485 19.2559 33.2584C19.2218 33.6008 19.2093 33.9442 19.258 34.2864C19.2383 34.5005 19.2135 34.7143 19.2902 34.9641C19.7691 34.3265 19.9214 33.6378 19.8873 32.8924C19.8717 32.547 19.8655 32.1727 20.2708 32.0339C20.7103 31.8828 21.0254 32.1388 21.2877 32.4545C21.6059 32.8369 21.6692 33.317 21.7832 33.7776C21.7832 34.3564 21.7811 34.9352 21.7801 35.514C21.6619 36.3613 21.4992 37.198 21.1654 37.9906C21.0907 38.1677 21.127 38.253 21.267 38.3754C21.919 38.945 22.7762 39.0282 23.4822 38.5429C24.9096 37.561 26.4448 37.2137 28.1386 37.7194C28.5418 37.8397 28.9896 37.9702 29.1462 38.3682C29.3296 38.8369 29.6064 38.8175 29.9775 38.7115C30.0926 38.6785 30.2149 38.6476 30.3331 38.6496C31.1261 38.6591 31.9522 38.3927 32.6872 38.9151C32.8893 39.2974 32.7691 39.6274 32.4654 39.8752C32.0321 40.229 31.717 40.6773 31.3842 41.1099C30.2958 42.5258 29.0166 43.7246 27.4596 44.6293C26.82 45.0004 26.3328 45.5187 26.1545 46.2743C26.0053 46.9064 25.8239 47.5304 25.658 48.1578C25.4009 49.1292 24.8266 49.8684 23.9901 50.4247C23.2417 50.9223 22.43 51.2965 21.607 51.6493C20.5144 52.117 19.4425 52.6186 18.4816 53.3333C17.3507 54.1742 16.6064 55.3216 15.858 56.471C15.69 56.3035 15.5688 56.1254 15.5097 55.8796C15.4299 55.5455 15.2433 55.2587 14.84 55.2186C14.6576 55.084 14.4751 54.9494 14.2938 54.8159C14.2782 54.6164 14.1424 54.5956 13.9828 54.6123C13.9527 54.5351 13.9455 54.4321 13.8905 54.3859C13.1846 53.8 12.3833 53.2705 11.4845 53.2161C10.4614 53.1542 9.90686 52.3875 9.09831 52.0296L9.09518 52.0286Z" fill="#FCEEE5"/>
<path d="M21.7811 33.7776C21.6671 33.318 21.6028 32.8369 21.2856 32.4544C21.0233 32.1388 20.7082 31.8839 20.2687 32.0339C19.8644 32.1727 19.8696 32.546 19.8851 32.8924C19.9194 33.6378 19.767 34.3265 19.2881 34.9641C19.2114 34.7143 19.2362 34.5005 19.2559 34.2864C19.4218 33.9431 19.4228 33.6008 19.2539 33.2584C19.2477 32.7495 19.2425 32.2406 19.2362 31.7306C19.4456 31.5477 19.3814 31.3523 19.2622 31.1549C19.3741 30.1103 19.4861 29.0658 19.598 28.0202C19.9691 27.8012 19.8437 27.4897 19.7587 27.1844L19.7525 27.1916C19.9049 27.2029 20.0873 27.1638 20.2044 27.2337C21.2338 27.8434 22.0154 27.2923 22.7938 26.7135C22.9276 26.6148 23.026 26.4575 23.223 26.4709C23.6273 26.4431 24.0315 26.4164 24.4348 26.3886C24.9904 26.5141 25.545 26.6323 26.0819 26.3218C26.1089 26.1892 26.1452 26.0566 26.1607 25.9229C26.3038 24.721 26.8998 23.9006 28.1323 23.6138C28.9782 23.6672 29.8148 23.4184 30.6689 23.5562C31.1219 23.6292 31.5925 23.6107 32.0548 23.6066C33.2791 23.5953 33.589 23.9602 34.131 25.0068C34.2017 25.1425 34.2422 25.2917 34.3023 25.4325C34.4277 25.7286 34.6153 25.7738 34.9647 25.8005C36.1172 25.888 37.2847 25.7296 38.426 26.0092C38.7679 26.0936 39.0445 25.7409 39.397 25.7707C39.8864 26.0123 40.2698 26.3475 40.4057 26.8996C39.9496 26.9705 39.4945 27.0466 39.0374 27.1104C38.5949 27.172 38.1802 27.2738 38.0609 27.7827C37.9675 28.1827 38.2557 28.6145 38.7709 28.8437C39.3722 29.111 40.0264 29.1645 40.6681 29.2612C40.6701 29.3958 40.6711 29.5305 40.6732 29.6642C39.9652 29.6765 39.2954 29.9109 38.603 30.0168C38.2537 30.0703 37.9675 30.279 37.7656 30.5751C37.3591 31.1724 36.9 31.7245 36.3725 32.2221C36.2501 32.3383 36.1495 32.4853 36.0676 32.6333C35.6778 33.3314 35.9796 33.9072 36.7807 33.9801C37.6317 34.0583 38.4114 33.7797 39.1856 33.4764C39.5982 33.315 39.9941 33.0744 40.4699 33.1587C40.474 33.3304 40.4784 33.5021 40.4825 33.6738C39.7671 33.7334 39.1101 33.9668 38.4858 34.3122C37.9294 34.6195 37.3581 34.8982 36.7994 35.2017C36.5591 35.3322 36.3225 35.4759 36.1081 35.6435C35.8684 35.8308 35.7006 36.0795 35.8052 36.4024C35.9089 36.7233 36.1536 36.9041 36.4853 36.9564C37.1331 37.0594 37.7551 36.9584 38.3471 36.6842C38.6747 36.5329 39.001 36.3786 39.3185 36.209C39.6831 36.0126 39.9612 36.0693 40.1539 36.4446C39.989 36.8055 39.9258 37.1828 39.9578 37.5773C39.934 38.1079 39.8232 38.5983 39.3338 38.9151C38.5459 39.0344 37.7561 39.135 36.9581 39.1431C36.9465 38.843 36.7174 38.911 36.5424 38.91C35.256 38.91 33.9695 38.913 32.6841 38.9161C31.9502 38.3937 31.123 38.6602 30.3299 38.651C30.2118 38.6496 30.0894 38.6795 29.9744 38.7125C29.6033 38.8175 29.3265 38.8379 29.143 38.3692C28.9876 37.9702 28.5387 37.8407 28.1355 37.7204C26.4427 37.2147 24.9075 37.5621 23.4791 38.5439C22.7731 39.0293 21.9159 38.946 21.2638 38.3764C21.1239 38.254 21.0876 38.1687 21.1622 37.9916C21.496 37.1991 21.6588 36.3623 21.777 35.515C22.0164 35.4504 21.9656 35.2479 21.9418 35.1007C21.8703 34.6619 22.1418 34.1807 21.7801 33.7786L21.7811 33.7776ZM30.5383 36.9625C30.9343 37.0026 31.4091 36.8116 31.9014 36.7613C32.7494 36.6747 33.3464 36.244 33.873 35.6034C34.7282 34.5651 35.1595 33.3561 35.1605 32.0679C35.1605 31.1035 35.255 29.9685 34.0753 29.4195C34.0172 29.3927 33.9632 29.3311 33.9342 29.2725C33.6854 28.7862 33.2138 28.6155 32.7494 28.4284C31.8226 28.0552 30.8856 27.9935 29.8811 28.1015C27.9188 28.3132 26.65 29.3403 25.9534 31.1056C25.7523 31.6155 25.6466 32.1717 25.7223 32.7505C25.8881 34.0182 26.6293 34.9148 27.5135 35.7669C28.3397 36.5628 29.2913 36.9605 30.5404 36.9615L30.5383 36.9625ZM22.2693 29.7443C22.2569 30.1577 22.2579 30.4805 22.3512 30.7961C22.3906 30.9298 22.4103 31.0696 22.5772 31.1014C22.7171 31.1282 22.8104 31.0398 22.8758 30.94C23.2976 30.2944 23.8491 29.7526 24.3197 29.147C24.9531 28.3328 24.9116 28.2207 23.9009 28.1652C23.0312 28.1169 22.6404 28.303 22.3274 29.0257C22.2144 29.2868 22.288 29.5655 22.2693 29.7454V29.7443ZM35.6 28.1878C35.6248 27.8794 35.5772 27.5956 35.517 27.3098C35.4021 26.7618 34.7812 26.4596 34.2867 26.7145C34.1769 26.7711 34.1355 26.8585 34.1562 26.9644C34.321 27.8054 34.5593 28.6196 35.0558 29.3362C35.1306 29.4431 35.2495 29.4781 35.3773 29.438C35.4994 29.4 35.5004 29.2879 35.5109 29.1861C35.5442 28.8478 35.6499 28.5158 35.6 28.1868V28.1878ZM33.7611 26.0607C33.8565 26.0514 34.1922 26.0956 34.0223 25.7388C33.7746 25.2176 33.4812 24.7138 33.107 24.2646C33.0562 24.2029 32.9878 24.1268 32.8893 24.1761C32.796 24.2224 32.8095 24.3211 32.8116 24.4013C32.8292 24.9205 32.993 25.4047 33.2024 25.8725C33.2822 26.0514 33.4615 26.0802 33.7601 26.0607H33.7611Z" fill="#383838"/>
<path d="M62.1495 71.4667C61.914 70.1232 61.5347 68.7845 61.4776 67.4325C61.4011 65.5884 60.4237 64.1878 59.4428 62.8103C56.2915 58.3801 53.8421 53.5512 51.1935 48.8331C50.6069 47.7877 50.0512 46.7246 49.4428 45.6914C48.7753 44.5593 48.3865 43.3514 48.3576 42.0446C48.342 41.3526 48.0154 40.7225 48.028 40.0326C49.8656 40.8479 51.3512 42.2132 53.074 43.2093C53.6474 43.5404 54.1126 43.9917 54.3937 44.6106C54.5657 44.9913 54.8858 45.2696 55.17 45.5639C55.7474 46.1631 55.9704 46.8724 56.0689 47.6857C56.2956 49.5509 56.2531 51.4342 56.5135 53.2963C56.6657 54.388 56.9251 55.4368 57.461 56.4153C57.7897 57.0138 58.0755 57.6388 58.3348 58.2713C58.6013 58.9208 59.1298 59.3361 59.6161 59.7885C59.9074 60.06 60.1674 60.352 60.3924 60.6759C60.6371 61.0297 60.7459 61.3998 60.579 61.8345C60.3832 62.3457 60.5263 62.7814 60.8981 63.1947C61.9266 64.337 62.4347 65.6839 62.4105 67.2228C62.4014 67.8427 62.6005 68.4361 62.675 69.0458C62.7807 69.905 62.5621 70.7092 62.1495 71.4647V71.4667Z" fill="#5A3F2C"/>
<path d="M34.8981 41.1069C35.4426 41.113 35.9867 41.1205 36.5309 41.1266C35.9847 41.3353 35.4395 41.3784 34.8981 41.1069Z" fill="#202221"/>
<path d="M28.1334 23.6148C26.9019 23.9016 26.3059 24.721 26.1618 25.9239C26.1463 26.0586 26.1089 26.1902 26.082 26.3228C25.5326 26.3454 24.9832 26.3681 24.4348 26.3896C24.0305 26.4174 23.6273 26.4441 23.223 26.4719C23.1546 26.2611 23.3599 26.2149 23.4583 26.1275C24.4276 25.2639 25.0558 24.2563 25.1024 22.9085C25.1314 22.0819 26.2447 21.7262 27.0844 22.2083C27.6441 22.5301 27.8836 23.073 28.1324 23.6148H28.1334Z" fill="#F6EAE1"/>
<path d="M19.598 28.0213C19.4861 29.0658 19.3741 30.1104 19.2622 31.1559C18.5666 30.9811 18.1385 30.5432 17.956 29.8585C17.7881 29.2262 17.7404 28.5826 17.7809 27.9338C17.814 27.4044 17.9343 27.3252 18.4733 27.4167C18.7967 27.4712 19.1005 27.5812 19.4011 27.7118C19.5586 27.7807 19.6032 27.8742 19.598 28.0223V28.0213Z" fill="#F6EAE1"/>
<path d="M16.0446 26.0874C16.3431 25.9942 16.8524 26.2453 17.5725 26.841C16.7992 26.9057 16.5338 26.2827 16.0446 26.0874Z" fill="#F6EAE1"/>
<path d="M19.7587 27.1854C19.4457 27.2512 19.2943 27.0116 19.1087 26.8389C19.3648 26.8801 19.6592 26.8533 19.7525 27.1926L19.7587 27.1854Z" fill="#C0C0C0"/>
<path d="M39.3358 38.913C39.8252 38.5963 39.936 38.1058 39.9601 37.5753C40.8526 37.8251 41.7047 38.2261 42.6437 38.3053C42.7267 38.6221 42.451 38.5769 42.2995 38.6149C41.3271 38.8542 40.3384 38.9562 39.3358 38.913Z" fill="#5A3F2C"/>
<path d="M21.7811 33.7776C22.1429 34.1797 21.8713 34.6606 21.9428 35.0997C21.9667 35.2468 22.0175 35.4494 21.778 35.514C21.778 34.9352 21.7801 34.3564 21.7811 33.7776Z" fill="#202221"/>
<path d="M19.2539 33.2584C19.4239 33.6008 19.4218 33.9431 19.2559 34.2864C19.2072 33.9442 19.2196 33.6008 19.2539 33.2584Z" fill="#202221"/>
<path d="M30.5383 36.9625C29.2892 36.9615 28.3376 36.5649 27.5114 35.7679C26.6272 34.9168 25.886 34.0192 25.7202 32.7515C25.6445 32.1717 25.7503 31.6165 25.9514 31.1066C26.648 29.3413 27.9168 28.3132 29.879 28.1025C30.8835 27.9945 31.8206 28.0562 32.7473 28.4294C33.2127 28.6165 33.6834 28.7872 33.9321 29.2735C33.9622 29.3321 34.0151 29.3938 34.0733 29.4205C35.2526 29.9695 35.1595 31.1045 35.1585 32.0689C35.1585 33.3571 34.7261 34.5661 33.871 35.6044C33.3434 36.245 32.7463 36.6757 31.8994 36.7623C31.408 36.8126 30.9322 37.0036 30.5362 36.9635L30.5383 36.9625ZM30.4585 36.0323C32.6042 36.1699 34.1487 34.5178 34.1592 32.4092C34.1705 30.1258 32.5255 28.8386 30.2667 28.7481C28.7823 28.6895 26.6293 30.5 26.677 32.3105C26.7319 34.3853 28.3863 36.1866 30.4575 36.0323H30.4585Z" fill="#262525"/>
<path d="M22.2694 29.7444C22.288 29.5644 22.2134 29.2868 22.3274 29.0247C22.6405 28.3019 23.0302 28.1158 23.901 28.1641C24.9116 28.2207 24.9531 28.3317 24.3198 29.146C23.8491 29.7505 23.2987 30.2934 22.8758 30.939C22.8105 31.0387 22.7172 31.1272 22.5772 31.1004C22.4103 31.0686 22.3917 30.9287 22.3512 30.7951C22.2579 30.4784 22.2569 30.1566 22.2694 29.7433V29.7444Z" fill="#787878"/>
<path d="M35.6 28.1878C35.6489 28.5168 35.5429 28.8488 35.5109 29.1871C35.5014 29.2878 35.4993 29.401 35.377 29.439C35.2495 29.4791 35.1306 29.4441 35.0558 29.3372C34.5593 28.6206 34.321 27.8064 34.1562 26.9653C34.1355 26.8595 34.1769 26.7721 34.2867 26.7155C34.7812 26.4606 35.4021 26.7628 35.517 27.3108C35.5772 27.5966 35.6248 27.8804 35.6 28.1888V28.1878Z" fill="#787878"/>
<path d="M33.7611 26.0606C33.4626 26.0802 33.2832 26.0514 33.2034 25.8725C32.994 25.4047 32.8302 24.9205 32.8126 24.4013C32.8095 24.3211 32.7971 24.2224 32.8904 24.1761C32.9888 24.1268 33.0573 24.2029 33.108 24.2646C33.4812 24.7138 33.7756 25.2186 34.0233 25.7388C34.1932 26.0956 33.8575 26.0514 33.7622 26.0606H33.7611Z" fill="#787878"/>
<path d="M24.4348 26.3896C24.9842 26.367 25.5336 26.3444 26.082 26.3228C25.545 26.6333 24.9894 26.5151 24.4348 26.3896Z" fill="#202221"/>
<path d="M30.4585 36.0323C28.3873 36.1866 26.7329 34.3853 26.678 32.3105C26.6303 30.499 28.7833 28.6895 30.2677 28.7481C32.5265 28.8376 34.1715 30.1258 34.1603 32.4092C34.1487 34.5189 32.6043 36.171 30.4595 36.0323H30.4585ZM30.5321 35.6272C32.5172 35.8532 33.7508 33.7406 33.7476 32.2416C33.7445 30.5586 32.3078 29.0524 30.6948 29.0504C28.7574 29.0473 27.1352 30.5257 27.1196 32.2807C27.1061 33.7745 28.6921 35.7998 30.5321 35.6272Z" fill="#383838"/>
<path d="M30.5321 35.6272C28.6921 35.7998 27.1051 33.7745 27.1196 32.2807C27.1362 30.5257 28.7585 29.0473 30.6949 29.0504C32.3078 29.0534 33.7445 30.5586 33.7476 32.2416C33.7508 33.7406 32.5162 35.8532 30.5321 35.6272ZM30.3714 34.8006C31.0515 34.8098 31.4713 34.632 31.8527 34.2939C32.3928 33.8146 32.6302 33.1947 32.6768 32.5243C32.794 30.8321 31.8424 29.0915 29.6935 29.8862C28.6413 30.2748 27.8898 31.5518 28.0795 32.6498C28.291 33.8743 29.3524 34.8006 30.3714 34.8016V34.8006Z" fill="#636363"/>
<path d="M30.3714 34.8006C29.3524 34.8006 28.291 33.8732 28.0795 32.6487C27.8898 31.5507 28.6413 30.2748 29.6935 29.8852C31.8424 29.0904 32.794 30.831 32.6768 32.5233C32.6302 33.1936 32.3928 33.8146 31.8527 34.2928C31.4713 34.632 31.0515 34.8098 30.3714 34.7996V34.8006Z" fill="#A5A5A5"/>
</g>
</g>
</g>
<path d="M69.344 34.356C65.864 34.356 63.056 32.076 63.056 28.596C63.056 25.116 65.864 22.836 69.344 22.836C70.16 22.836 71.12 23.052 71.84 23.34L76.712 22.836V25.116H73.928C74.96 25.884 75.632 27.18 75.632 28.836C75.632 30.636 74.6 32.22 72.8 32.988C74.84 33.348 76.136 34.452 76.136 36.54C76.136 39.372 73.736 41.124 69.464 41.124C67.232 41.124 64.736 40.548 62.96 39.396L64.064 37.332C65.456 38.244 67.52 38.916 69.464 38.916C71.936 38.916 73.592 38.124 73.592 36.54C73.592 35.076 72.368 34.356 70.088 34.356H69.344ZM65.576 28.596C65.576 30.732 67.16 32.244 69.344 32.244C71.528 32.244 73.112 30.732 73.112 28.596C73.112 26.46 71.528 24.948 69.344 24.948C67.16 24.948 65.576 26.46 65.576 28.596ZM78.7597 29.46C78.7597 25.596 81.6397 22.836 85.1677 22.836C87.5917 22.836 89.3197 24.06 89.9917 25.524V23.316H92.5597V35.604H89.9917V33.396C89.3197 34.86 87.5917 36.084 85.1677 36.084C81.6397 36.084 78.7597 33.324 78.7597 29.46ZM81.3037 29.46C81.3037 32.028 83.1037 33.948 85.6477 33.948C88.1917 33.948 89.9917 32.028 89.9917 29.46C89.9917 26.892 88.1917 24.972 85.6477 24.972C83.1037 24.972 81.3037 26.892 81.3037 29.46ZM96.2872 32.484V16.356H98.8312V32.124C98.8312 33.252 99.4312 33.732 100.391 33.732C100.847 33.732 101.423 33.612 101.855 33.444L102.167 35.772C101.519 35.988 100.703 36.084 99.9352 36.084C97.7272 36.084 96.2872 34.932 96.2872 32.484ZM104.326 32.484V16.356H106.87V32.124C106.87 33.252 107.47 33.732 108.43 33.732C108.886 33.732 109.462 33.612 109.894 33.444L110.206 35.772C109.558 35.988 108.742 36.084 107.974 36.084C105.766 36.084 104.326 34.932 104.326 32.484ZM111.294 29.46C111.294 25.524 114.102 22.836 117.846 22.836C121.59 22.836 124.398 25.524 124.398 29.268C124.398 29.7 124.374 30.036 124.326 30.444H113.838C114.198 32.652 115.83 33.948 118.566 33.948C120.102 33.948 121.566 33.564 122.646 32.94L123.486 35.004C122.19 35.652 120.366 36.084 118.326 36.084C114.27 36.084 111.294 33.756 111.294 29.46ZM113.838 28.476H121.854C121.518 26.148 120.03 24.972 117.846 24.972C115.662 24.972 114.174 26.34 113.838 28.476ZM136.509 23.412L135.645 25.836C135.069 25.404 134.229 25.164 133.413 25.164C131.325 25.164 129.861 26.868 129.861 29.46V35.604H127.269V23.316H129.813V25.644C130.389 24.012 131.757 22.836 133.941 22.836C134.829 22.836 135.789 23.052 136.509 23.412ZM142.769 35.604L136.985 23.316H139.889L143.105 30.78L144.089 33.3L145.121 30.78L148.169 23.316H151.025L143.153 40.644H140.417L142.769 35.604ZM154.078 36.54C153.142 36.54 152.35 35.796 152.35 34.86C152.35 33.924 153.118 33.18 154.078 33.18C155.014 33.18 155.806 33.924 155.806 34.86C155.806 35.796 155.014 36.54 154.078 36.54ZM165.475 21.492C163.963 21.492 162.787 20.316 162.787 18.876C162.787 17.436 163.963 16.26 165.475 16.26C166.987 16.26 168.163 17.436 168.163 18.876C168.163 20.316 166.987 21.492 165.475 21.492ZM158.827 40.644L159.307 36.852C159.955 37.164 160.843 37.332 161.611 37.332C162.715 37.332 163.291 36.804 163.291 35.58V23.22H167.659V36.3C167.659 39.516 165.739 41.22 162.571 41.22C161.275 41.22 159.811 40.956 158.827 40.644ZM172.828 21.492C171.316 21.492 170.14 20.316 170.14 18.876C170.14 17.436 171.316 16.26 172.828 16.26C174.34 16.26 175.516 17.436 175.516 18.876C175.516 20.316 174.34 21.492 172.828 21.492ZM170.596 35.7V23.22H175.06V35.7H170.596ZM191.348 35.7H186.86V29.028C186.86 27.588 186.02 26.628 184.58 26.628C183.14 26.628 182.3 27.588 182.3 29.028V35.7H177.812V16.26H182.3V24.492C182.924 23.388 184.148 22.74 185.78 22.74C189.212 22.74 191.348 24.828 191.348 28.62V35.7ZM193.63 23.22H198.118V29.916C198.118 31.308 198.934 32.172 200.302 32.172C201.67 32.172 202.486 31.308 202.486 29.916V23.22H206.974V30.396C206.974 34.02 204.574 36.18 200.302 36.18C196.03 36.18 193.63 34.02 193.63 30.396V23.22ZM223.036 35.7H218.548V29.028C218.548 27.588 217.708 26.628 216.268 26.628C214.828 26.628 213.988 27.588 213.988 29.028V35.7H209.5V23.22H213.94V24.516C214.588 23.436 215.86 22.74 217.468 22.74C220.9 22.74 223.036 24.828 223.036 28.62V35.7ZM228.533 36.9C227.021 36.9 225.845 35.724 225.845 34.284C225.845 32.844 227.021 31.668 228.533 31.668C230.045 31.668 231.221 32.844 231.221 34.284C231.221 35.724 230.045 36.9 228.533 36.9ZM237.399 21.492C235.887 21.492 234.711 20.316 234.711 18.876C234.711 17.436 235.887 16.26 237.399 16.26C238.911 16.26 240.087 17.436 240.087 18.876C240.087 20.316 238.911 21.492 237.399 21.492ZM235.167 35.7V23.22H239.631V35.7H235.167ZM241.783 29.46C241.783 25.428 244.879 22.74 249.031 22.74C253.182 22.74 256.279 25.428 256.279 29.46C256.279 33.492 253.182 36.18 249.031 36.18C244.879 36.18 241.783 33.492 241.783 29.46ZM246.295 29.46C246.295 31.188 247.398 32.436 249.031 32.436C250.663 32.436 251.767 31.188 251.767 29.46C251.767 27.732 250.663 26.484 249.031 26.484C247.398 26.484 246.295 27.732 246.295 29.46Z" fill="white"/>
</g>
<defs>
<clipPath id="clip0_1_222">
<rect width="257" height="52" fill="white"/>
</clipPath>
<clipPath id="clip1_1_222">
<rect width="52" height="52" fill="white"/>
</clipPath>
</defs>
</svg>
